<svg width="997" height="413" viewBox="0 0 997 413" fill="none" xmlns="http://www.w3.org/2000/svg">
<path d="M302.659 59.3792C309.117 55.4702 315.992 52.5064 323.083 50.4878L327.291 30.2373L361.449 29.6379L366.366 49.7257C373.524 51.4924 380.499 54.2121 387.092 57.8926L404.355 46.5585L428.932 70.3284L418.232 88.0047C422.136 94.4753 425.095 101.365 427.109 108.468L447.324 112.682L447.924 146.896L427.868 151.82C426.104 158.989 423.389 165.974 419.715 172.578L431.029 189.871L407.301 214.489L389.652 203.77C383.193 207.68 376.317 210.642 369.224 212.659L365.016 232.91L330.859 233.511L325.942 213.422C318.786 211.655 311.81 208.934 305.218 205.255L287.955 216.589L263.377 192.819L274.077 175.143C270.175 168.672 267.213 161.785 265.201 154.681L244.985 150.467L244.385 116.253L264.441 111.327C266.205 104.159 268.923 97.1715 272.595 90.5695L261.279 73.2765L285.007 48.6585L302.659 59.3792ZM320.867 104.958C306.808 119.544 307.216 142.783 321.777 156.865C336.339 170.947 359.54 170.539 373.597 155.951C387.654 141.366 387.248 118.126 372.686 104.046C358.125 89.9639 334.925 90.3723 320.867 104.958Z" fill="#E0E0E0"/>
<path d="M147.751 18.9048C151.848 16.4245 156.212 14.542 160.713 13.262L163.383 0.409979L185.059 0.0297241L188.179 12.7769C192.722 13.8973 197.149 15.6249 201.331 17.9596L212.287 10.7661L227.885 25.8511L221.094 37.0678C223.571 41.1739 225.449 45.5461 226.726 50.0544L239.555 52.7287L239.936 74.4408L227.208 77.5657C226.09 82.1147 224.365 86.5479 222.034 90.7385L229.214 101.713L214.157 117.336L202.957 110.534C198.858 113.014 194.495 114.895 189.994 116.175L187.324 129.027L165.648 129.407L162.528 116.658C157.985 115.536 153.559 113.81 149.375 111.476L138.419 118.669L122.822 103.586L129.613 92.3675C127.135 88.2614 125.257 83.8908 123.98 79.3825L111.15 76.7082L110.771 54.9961L123.498 51.8696C124.617 47.3206 126.342 42.8859 128.673 38.6968L121.492 27.7226L136.549 12.0993L147.751 18.9048ZM159.307 47.8292C150.385 57.0852 150.644 71.8337 159.885 80.769C169.125 89.7057 183.85 89.446 192.77 80.19C201.69 70.934 201.434 56.1854 192.192 47.2502C182.951 38.3134 168.229 38.5732 159.307 47.8292Z" fill="#F5F5F5"/>
<path d="M899.588 296.126C903.896 293.518 908.485 291.54 913.217 290.194L916.024 276.682L938.817 276.281L942.096 289.685C946.872 290.864 951.528 292.679 955.927 295.134L967.447 287.571L983.846 303.432L976.706 315.227C979.312 319.544 981.285 324.141 982.629 328.881L996.117 331.693L996.517 354.523L983.135 357.809C981.959 362.593 980.147 367.254 977.695 371.659L985.244 383.198L969.412 399.626L957.636 392.473C953.326 395.082 948.738 397.06 944.005 398.405L941.198 411.918L918.406 412.318L915.126 398.912C910.35 397.734 905.696 395.917 901.297 393.464L889.777 401.027L873.376 385.165L880.516 373.37C877.911 369.052 875.935 364.456 874.592 359.716L861.102 356.904L860.702 334.075L874.084 330.789C875.26 326.005 877.074 321.344 879.524 316.939L871.973 305.399L887.807 288.972L899.588 296.126ZM911.737 326.54C902.356 336.274 902.628 351.78 912.345 361.176C922.06 370.573 937.542 370.299 946.922 360.568C956.302 350.834 956.032 335.329 946.314 325.932C936.599 316.536 921.118 316.809 911.737 326.54Z" fill="#F5F5F5"/>
<path d="M42.7535 187.045C47.4387 184.209 52.4269 182.058 57.5714 180.594L60.6241 165.902L85.4045 165.467L88.9711 180.041C94.164 181.322 99.2257 183.295 104.008 185.965L116.532 177.742L134.362 194.986L126.599 207.81C129.432 212.505 131.578 217.503 133.039 222.656L147.705 225.713L148.141 250.535L133.592 254.107C132.313 259.307 130.343 264.376 127.677 269.167L135.885 281.713L118.671 299.572L105.867 291.796C101.18 294.633 96.1918 296.782 91.0473 298.247L87.9947 312.939L63.2143 313.374L59.6477 298.799C54.4547 297.517 49.3946 295.543 44.6126 292.875L32.088 301.098L14.2581 283.853L22.0209 271.029C19.1885 266.335 17.042 261.338 15.5813 256.185L0.914911 253.128L0.480606 228.306L15.0314 224.732C16.3109 219.532 18.2824 214.462 20.9461 209.672L12.738 197.127L29.9524 179.268L42.7535 187.045ZM55.9639 220.111C45.764 230.693 46.0592 247.552 56.6247 257.769C67.1886 267.986 84.0203 267.689 94.2187 257.107C104.417 246.526 104.122 229.666 93.5578 219.449C82.9939 209.233 66.1622 209.53 55.9639 220.111Z" fill="#E0E0E0"/>
</svg>
