<svg width="484" height="444" viewBox="0 0 484 444" fill="none" xmlns="http://www.w3.org/2000/svg">
<path d="M133.668 21.4218C135.062 23.5218 137.282 25.495 139.797 25.3824C140.539 25.3479 142.505 24.7658 142.505 24.7658C143.343 25.3495 142.954 28.3305 142.301 29.1176C141.648 29.9047 140.31 30.9422 140.31 30.9422C143.142 32.7011 145.859 32.0892 149.053 31.1378C148.174 36.4317 144.25 41.1058 139.194 42.8803C137.579 43.4484 135.645 43.6894 134.267 42.6706C133.054 41.774 132.633 40.1747 132.341 38.6928C131.269 33.2519 130.872 27.6795 131.163 22.1416L133.668 21.4218Z" fill="#263238"/>
<path d="M68.3836 44.921L64.0171 115.831C63.2751 127.89 64.6436 145.756 83.7311 146.062C100.311 145.077 105.456 129.654 106.137 118.401C106.46 113.063 106.74 108.611 106.81 108.065C106.81 108.065 124.937 107.48 127.338 89.694C128.499 81.0984 129.45 63.1998 130.124 46.9975C130.847 29.5965 118.087 14.5631 100.828 12.4428L99.1131 12.2315C80.477 11.0423 69.0569 26.229 68.3836 44.921Z" fill="#FFBF9D"/>
<path d="M106.826 108.035C106.826 108.035 95.5355 107.317 84.5107 98.3335C84.5107 98.3335 88.5663 112.038 106.507 112.616L106.826 108.035Z" fill="#FF9A6C"/>
<path d="M98.7522 51.7014C98.3804 52.0456 96.4026 50.2836 93.4187 50.0567C90.441 49.7844 88.132 51.1865 87.8368 50.7859C87.6915 50.6075 88.0914 49.9644 89.099 49.3275C90.0911 48.6922 91.7455 48.1288 93.603 48.2837C95.4605 48.4418 96.9697 49.2665 97.8117 50.0567C98.6756 50.8532 98.935 51.5496 98.7522 51.7014Z" fill="#263238"/>
<path d="M98.8819 60.4707C98.7709 61.7476 97.6008 62.7053 96.2682 62.6145C94.9387 62.5222 93.9467 61.4174 94.0576 60.1405C94.1685 58.8636 95.3387 57.9043 96.6697 57.9951C98.0023 58.0858 98.9928 59.1937 98.8819 60.4707Z" fill="#263238"/>
<path d="M105.214 72.8876C105.22 72.7311 106.954 72.6451 109.75 72.631C110.457 72.6451 111.135 72.5872 111.311 72.124C111.538 71.6389 111.338 70.8502 111.099 69.9942C110.65 68.2213 110.18 66.3638 109.686 64.4172C107.749 56.4866 106.437 50.0003 106.757 49.9252C107.077 49.8501 108.907 56.2174 110.844 64.148C111.305 66.1009 111.747 67.9646 112.166 69.7454C112.333 70.5732 112.675 71.5293 112.191 72.534C111.939 73.0331 111.38 73.3492 110.919 73.415C110.455 73.4963 110.061 73.4557 109.713 73.4338C106.924 73.2428 105.204 73.0457 105.214 72.8876Z" fill="#263238"/>
<path d="M99.9332 42.3108C99.5489 42.9258 97.2555 42.0746 94.3982 41.796C91.5471 41.4564 89.1162 41.7929 88.8819 41.1122C88.7819 40.7882 89.3131 40.2484 90.3645 39.8071C91.408 39.3658 92.9797 39.0763 94.6919 39.2594C96.4025 39.4472 97.8695 40.0653 98.785 40.721C99.7098 41.3766 100.105 42.0166 99.9332 42.3108Z" fill="#263238"/>
<path d="M126.732 46.697C126.391 47.2228 124.09 46.5061 121.269 46.2808C118.451 46.0038 116.085 46.3011 115.815 45.7206C115.698 45.4452 116.187 44.982 117.193 44.6017C118.19 44.2199 119.714 43.9664 121.406 44.1166C123.097 44.27 124.571 44.7911 125.51 45.3466C126.457 45.9006 126.882 46.4435 126.732 46.697Z" fill="#263238"/>
<path d="M67.6962 57.1767C67.4088 57.0077 55.92 52.055 54.817 64.2811C53.7141 76.5071 66.1949 75.0941 66.248 74.7451C66.3011 74.3977 67.6962 57.1767 67.6962 57.1767Z" fill="#FFBF9D"/>
<path d="M62.9376 69.7768C62.8876 69.733 62.7111 69.9067 62.3377 70.0397C61.9721 70.168 61.3597 70.2243 60.7442 69.9286C59.4975 69.3371 58.5977 67.1886 58.7367 64.979C58.8055 63.8649 59.1351 62.8258 59.6069 61.9839C60.0615 61.1233 60.6942 60.5505 61.3551 60.4942C62.0143 60.4034 62.4393 60.8338 62.5564 61.1905C62.6892 61.5473 62.5892 61.7836 62.6533 61.8118C62.6845 61.8447 62.9345 61.6303 62.8814 61.117C62.8533 60.8698 62.7361 60.5677 62.4705 60.308C62.1987 60.0435 61.7784 59.8823 61.3222 59.8902C60.3755 59.8698 59.4491 60.6616 58.9304 61.5849C58.3587 62.5081 57.9634 63.6739 57.8853 64.9258C57.7416 67.3967 58.793 69.8159 60.5114 70.4872C61.3504 70.7892 62.0893 70.5952 62.4846 70.3401C62.8892 70.071 62.9782 69.8018 62.9376 69.7768Z" fill="#FF9A6C"/>
<path d="M52.408 36.5412C55.1685 32.3459 56.0168 27.2195 57.6463 22.4671C59.2757 17.7147 62.2034 12.8528 67.0057 11.4006L67.1088 11.4522C71.43 9.95469 76.6557 10.1879 79.9911 13.305C81.1659 6.97995 86.9869 2.21346 93.2718 0.888049C99.5567 -0.437367 109.46 1.0273 115.293 3.71882C119.802 5.80005 124.064 9.81855 129.194 15.6679C131.356 18.1325 133.331 20.7662 135.062 23.5516L139.638 40.505L134.585 49.0286C134.279 49.6107 133.964 50.1913 133.59 50.764L133.589 50.7234L129.075 68.5124C129.06 63.4705 129.724 46.4404 129.707 41.3985C121.975 40.6818 115.12 37.2047 110.205 31.1817C107.612 28.0035 105.643 24.0852 102.066 22.0869C97.4524 19.5096 91.7314 20.9383 86.6619 22.4264L86.8822 22.2465C84.2295 23.3199 81.7861 24.9083 79.7287 26.9003C80.3629 36.8558 78.8351 46.9458 75.2653 56.2597C74.7279 57.6634 73.3078 60.538 71.883 61.0106C69.0835 61.9385 68.482 59.1015 66.9026 57.5304C65.7403 56.3755 63.9406 56.1439 61.9675 56.0532C60.9582 52.9407 60.0162 47.7329 59.2351 43.1746C57.5525 43.5971 55.7778 43.6471 54.0844 43.2638C54.6733 42.0275 55.2607 40.7913 55.8497 39.5551C55.1436 39.9557 54.4109 40.3641 53.6032 40.4424C52.7955 40.5206 51.8894 40.1748 51.5644 39.4315C51.1442 38.4707 51.8316 37.4191 52.408 36.5412Z" fill="#263238"/>
<path d="M85.5027 15.6334C85.5356 15.6804 84.7325 16.0685 83.6327 17.1842C82.5438 18.2952 81.2862 20.2591 80.6035 22.9819C80.2552 24.3355 80.0052 25.8549 79.924 27.4996C79.8365 29.1442 79.8818 30.9125 79.9161 32.7762C79.9458 34.6399 79.9818 36.6069 79.7615 38.6428C79.6521 39.6584 79.4787 40.6896 79.2084 41.7145C78.9335 42.7207 78.6117 43.813 77.8024 44.6502C77.1556 45.334 76.1199 45.6 75.2435 45.3747C74.3608 45.1728 73.5906 44.658 73.0407 43.982C71.958 42.583 71.7565 40.868 71.5456 39.3548L71.9174 39.4189C71.2394 40.7365 70.5458 42.0369 69.5631 43.0556C68.5961 44.0806 67.2932 44.7253 65.9996 44.7769C65.356 44.8035 64.7139 44.6674 64.1765 44.3638C63.6281 44.0618 63.2423 43.5751 62.9876 43.0697C62.7455 42.5549 62.633 41.9962 62.6877 41.4673C62.7439 40.9384 62.9751 40.4455 63.3282 40.1059L63.5094 40.2843C62.0565 41.785 60.563 42.558 59.535 42.9758C59.0164 43.1839 58.6039 43.3044 58.3259 43.3795C58.0447 43.4484 57.8978 43.475 57.8947 43.464C57.8915 43.4515 58.0322 43.403 58.3055 43.3122C58.5774 43.2152 58.9789 43.0759 59.4819 42.8506C60.4818 42.3999 61.93 41.6034 63.3235 40.1106L63.5047 40.289C62.8736 40.8961 62.783 42.0134 63.2563 42.9382C63.4938 43.3936 63.85 43.8286 64.3327 44.0853C64.8123 44.3497 65.3966 44.4702 65.9856 44.4389C67.1744 44.3795 68.3883 43.7739 69.2944 42.799C70.2224 41.8272 70.8941 40.5597 71.5644 39.239L71.8487 38.6788L71.9362 39.3031C72.1486 40.8148 72.372 42.4641 73.3594 43.7254C73.8515 44.331 74.5561 44.7973 75.3309 44.9725C76.1043 45.1619 76.9432 44.9444 77.5056 44.3591C78.2133 43.6346 78.5382 42.6018 78.8054 41.6112C79.071 40.6113 79.2428 39.602 79.3537 38.6036C79.5756 36.6038 79.5474 34.6493 79.5287 32.7887C79.5053 30.9266 79.4725 29.1505 79.5756 27.4855C79.6724 25.8205 79.9443 24.2807 80.3161 22.9099C81.0457 20.1542 82.3704 18.1685 83.5156 17.0746C84.6732 15.9714 85.5027 15.6334 85.5027 15.6334Z" fill="#455A64"/>
<path d="M139.832 35.7401C139.836 35.7464 139.785 35.7855 139.683 35.8559C139.558 35.9388 139.407 36.0374 139.221 36.1595C139.019 36.2956 138.763 36.4537 138.441 36.607C138.124 36.7698 137.763 36.967 137.327 37.125C135.632 37.8323 132.937 38.4848 129.625 38.1249C126.345 37.7775 122.453 36.4145 119.055 33.6119C115.617 30.8688 112.676 26.9348 110.332 22.4781C109.141 20.2498 108.193 17.9808 107.127 15.8745C106.07 13.7683 104.884 11.8106 103.409 10.238C101.953 8.65907 100.23 7.46041 98.4225 6.85952C97.5227 6.54342 96.6056 6.43544 95.7277 6.41353C94.845 6.41666 94.0029 6.55438 93.2218 6.76876C91.6596 7.21004 90.377 7.99871 89.3927 8.82807C88.4054 9.66526 87.7258 10.5666 87.2509 11.3443C86.3588 12.9467 86.262 13.9983 86.1979 13.9779C86.1901 13.9764 86.1995 13.9138 86.2214 13.7917C86.2526 13.6446 86.2885 13.4662 86.3323 13.2487C86.4432 12.7746 86.6822 12.0923 87.1087 11.2645C87.5696 10.4602 88.2429 9.52444 89.2381 8.65126C90.2301 7.78591 91.533 6.9581 93.1375 6.48552C93.9389 6.25549 94.8075 6.10371 95.723 6.09119C96.6322 6.10371 97.5961 6.2101 98.5288 6.53089C100.407 7.13961 102.189 8.36645 103.687 9.9751C105.206 11.5775 106.42 13.5695 107.49 15.6899C108.568 17.8102 109.518 20.0746 110.699 22.2825C113.026 26.7048 115.924 30.5965 119.296 33.3115C122.63 36.0875 126.427 37.4474 129.658 37.8307C132.914 38.222 135.574 37.6257 137.268 36.9732C138.975 36.3097 139.802 35.6869 139.832 35.7401Z" fill="#455A64"/>
<path d="M125.934 54.1723C125.562 54.5165 123.584 52.7545 120.6 52.5261C117.624 52.2538 115.314 53.6559 115.02 53.2553C114.873 53.0753 115.275 52.4337 116.282 51.7968C117.274 51.1615 118.929 50.5982 120.786 50.7531C122.644 50.9112 124.153 51.7358 124.995 52.5261C125.857 53.3241 126.115 54.0205 125.934 54.1723Z" fill="#263238"/>
<path d="M123.15 62.8539C123.039 64.1293 121.869 65.0885 120.536 64.9962C119.207 64.9054 118.215 63.7991 118.326 62.5222C118.437 61.2468 119.607 60.286 120.938 60.3768C122.269 60.4691 123.261 61.5786 123.15 62.8539Z" fill="#263238"/>
<path d="M105.034 82.9136C105.045 83.0169 104.334 83.225 103.164 83.0748C102.011 82.9355 100.394 82.3471 99.0943 81.0499C97.7961 79.7495 97.204 78.1315 97.0634 76.9766C96.9118 75.8061 97.1165 75.0926 97.2212 75.1035C97.3555 75.1082 97.3774 75.8093 97.6664 76.853C97.946 77.8905 98.5631 79.2863 99.7098 80.4334C100.857 81.5788 102.252 82.1938 103.287 82.4724C104.331 82.7587 105.029 82.7791 105.034 82.9136Z" fill="#263238"/>
<path d="M203.378 121.864L156.391 163.495L111.033 126.831L107.605 174.995L135.738 197.555C147.377 202.099 160.049 204.348 169.291 195.931L221.345 143.088L203.378 121.864Z" fill="#FF725E"/>
<path d="M19.2493 145.011C19.2493 145.011 20.3398 126.901 36.52 117.357C38.8821 115.965 58.4102 107.428 58.4102 107.428L64.2187 99.0956L99.8582 121.862L104.353 125.973L108.016 117.151L112.355 123.759L110.521 123.46L111.033 126.831L113.245 141.465L114.814 183.387C114.793 182.943 115.479 198.12 115.053 205.119C113.442 231.543 108.947 298.886 107.354 303.631C105.379 309.513 99.8223 309.68 99.8223 309.68L6.64978 283.407C1.38969 282.959 -3.40485 268.628 4.45951 264.021L19.2493 145.011Z" fill="#FF725E"/>
<g opacity="0.3">
<path d="M26.7013 157.753C26.7013 157.753 65.5044 230.226 78.7882 237.364C92.072 244.505 113.5 239.96 113.5 239.96V234.084L26.7013 157.753Z" fill="black"/>
</g>
<path d="M54.2781 126.529C59.6569 128.959 109.446 194.496 109.446 194.496L179.924 193.912L184.509 226.944C184.509 226.944 110.617 237.652 93.3874 233.881C76.1589 230.11 25.7639 156.752 22.68 151.787C17.7886 143.912 21.9567 131.45 29.5211 124.832" fill="#FF725E"/>
<path d="M29.5211 124.832C29.5211 124.832 29.2711 125.108 28.7587 125.613C28.2338 126.105 27.5136 126.901 26.6309 127.989C24.9234 130.178 22.5519 133.724 21.3334 138.924C20.7631 141.498 20.4413 144.523 21.2193 147.656C21.838 150.859 24.2235 153.608 26.2982 156.766C30.6209 163.003 35.6358 170.042 41.3176 177.719C47.0042 185.393 53.3345 193.726 60.4427 202.415C63.9984 206.758 67.7478 211.191 71.7659 215.613C75.7981 220.013 80.0427 224.492 84.9028 228.471C87.3399 230.406 89.9364 232.377 92.914 233.327L93.4686 233.507L94.0623 233.59L95.2527 233.756C96.0495 233.851 96.8368 234.012 97.6477 234.058C99.2708 234.13 100.903 234.202 102.545 234.275C109.132 234.351 115.863 233.951 122.706 233.499C136.388 232.474 150.524 230.939 164.968 229.133C171.545 228.309 178.049 227.451 184.449 226.542L184.106 226.999C182.539 215.688 181.011 204.648 179.531 193.967L179.925 194.306C154.078 194.497 130.239 194.673 109.447 194.826L109.282 194.827L109.182 194.696C93.0718 173.505 79.6006 156.228 70.0209 144.363C65.2279 138.434 61.4035 133.861 58.6945 130.848C57.3448 129.336 56.2684 128.22 55.5029 127.518C54.7499 126.792 54.2578 126.566 54.2765 126.53C54.2765 126.53 54.7905 126.738 55.5685 127.443C56.3621 128.126 57.4651 129.223 58.8398 130.716C61.6003 133.693 65.4731 138.23 70.313 144.127C79.9849 155.926 93.5343 173.145 109.708 194.297L109.444 194.167C130.236 193.976 154.075 193.756 179.922 193.518L180.267 193.515L180.316 193.857C181.801 204.539 183.339 215.577 184.912 226.886L184.968 227.287L184.57 227.343C178.16 228.257 171.656 229.115 165.073 229.941C150.619 231.747 136.474 233.279 122.767 234.294C115.91 234.742 109.165 235.136 102.536 235.052C100.878 234.975 99.2287 234.9 97.5883 234.825C96.7681 234.778 95.9526 234.613 95.1371 234.513L93.917 234.34L93.3077 234.253L92.7094 234.061C89.5052 233.028 86.9103 231.016 84.4326 229.052C79.5209 225.018 75.2763 220.516 71.2378 216.094C67.2166 211.649 63.4719 207.199 59.9209 202.841C52.8252 194.12 46.5168 185.761 40.8552 178.059C35.1983 170.355 30.2148 163.288 25.9248 157.023C24.8562 155.452 23.8252 153.94 22.8612 152.456C21.9114 150.956 21.1662 149.363 20.8428 147.745C20.0679 144.524 20.4257 141.454 21.0256 138.852C22.3082 133.599 24.7453 130.056 26.5044 127.885C27.4121 126.807 28.1557 126.026 28.7025 125.552C29.2352 125.066 29.5211 124.832 29.5211 124.832Z" fill="#263238"/>
<path d="M58.4099 107.428C58.7567 108.23 91.3187 130.148 91.3187 130.148L99.1705 122.598L103.356 125.964" fill="#FF725E"/>
<path d="M103.356 125.963C103.328 125.998 102.917 125.723 102.178 125.18C101.335 124.539 100.288 123.745 99.0225 122.784L99.3365 122.77C97.2852 124.79 94.631 127.405 91.5752 130.414L91.3643 130.622L91.1143 130.455C88.1273 128.45 84.7857 126.206 81.2597 123.84C74.8295 119.479 69.046 115.474 64.9076 112.507C60.7692 109.547 58.2665 107.599 58.4118 107.43C61.8284 109.738 69.9006 115.188 81.7174 123.167C85.2262 125.555 88.5523 127.819 91.5268 129.844L91.0659 129.885C94.192 126.949 96.9087 124.4 99.0084 122.428L99.1662 122.281L99.3224 122.414C100.532 123.444 101.533 124.297 102.339 124.982C103.028 125.586 103.384 125.929 103.356 125.963Z" fill="#263238"/>
<path d="M111.809 131.952C111.866 131.946 112.005 132.813 112.208 134.384C112.412 135.955 112.672 138.232 112.959 141.05C113.537 146.685 114.208 154.483 114.697 163.115C115.182 171.748 115.378 179.577 115.398 185.241C115.409 188.074 115.389 190.366 115.342 191.95C115.3 193.533 115.25 194.41 115.193 194.41C115.137 194.41 115.081 193.535 115.026 191.951C114.975 190.224 114.906 187.969 114.823 185.251C114.656 179.594 114.37 171.782 113.886 163.16C113.398 154.541 112.819 146.745 112.388 141.102C112.188 138.39 112.02 136.14 111.892 134.415C111.784 132.833 111.753 131.957 111.809 131.952Z" fill="#263238"/>
<path d="M10.4679 264.031C32.3722 262.427 54.114 258.58 75.2419 252.571L10.4679 264.031Z" fill="#FF725E"/>
<path d="M75.2419 252.572C75.2575 252.626 74.3842 252.924 72.7892 253.417C71.1957 253.916 68.8742 254.578 65.9903 255.346C60.224 256.886 52.1878 258.764 43.2189 260.355C34.2454 261.939 26.0514 262.932 20.1086 263.464C17.1372 263.732 14.7282 263.907 13.0613 263.985C11.3943 264.068 10.4726 264.089 10.4679 264.032C10.4632 263.976 11.3787 263.849 13.0363 263.669C14.8313 263.471 17.195 263.208 20.0492 262.892C25.967 262.214 34.1266 261.133 43.0767 259.554C52.0238 257.967 60.0568 256.183 65.8497 254.789C68.6398 254.107 70.9504 253.542 72.7048 253.113C74.3233 252.712 75.2263 252.517 75.2419 252.572Z" fill="#263238"/>
<path d="M102.219 401.941L57.7291 386.7C57.7291 386.7 27.3215 426.877 18.8244 424.861L45.2295 337.395L115.521 358.295L102.219 401.941Z" fill="#455A64"/>
<path d="M69.6772 360.8C69.7256 358.968 68.179 357.221 66.3543 357.098C64.528 356.974 62.7423 358.534 62.6611 360.365C62.5799 362.196 64.3718 364.349 66.2012 364.268C68.029 364.186 70.0256 362.24 69.6662 360.442" fill="#E0E0E0"/>
<path d="M43.4123 336.777L50.2253 338.794L24.2982 422.75C24.2982 422.75 21.4315 426.132 18.8256 424.863L43.4123 336.777Z" fill="#E0E0E0"/>
<path d="M57.7463 388.252C57.3245 388.11 57.776 385.914 57.0386 383.398C56.3668 380.861 54.8483 379.218 55.1357 378.877C55.3373 378.508 57.6947 379.918 58.5321 382.98C59.3976 386.035 58.1087 388.463 57.7463 388.252Z" fill="#263238"/>
<path d="M51.1879 396.278C50.7458 396.251 50.5787 394.181 49.2132 392.184C47.9072 390.147 46.0669 389.191 46.2137 388.772C46.2684 388.349 48.8539 388.811 50.5052 391.325C52.1768 393.826 51.5972 396.392 51.1879 396.278Z" fill="#263238"/>
<path d="M38.6525 398.168C38.679 397.752 40.988 397.804 42.9924 399.608C45.0092 401.398 45.3233 403.691 44.9124 403.764C44.489 403.899 43.6282 402.223 41.9597 400.766C40.3288 399.272 38.5665 398.605 38.6525 398.168Z" fill="#263238"/>
<path d="M68.2695 390.598C67.9352 390.302 69.1147 388.52 69.6803 386.057C70.2958 383.604 70.0536 381.481 70.4864 381.368C70.8691 381.215 71.894 383.528 71.1878 386.42C70.502 389.316 68.5414 390.909 68.2695 390.598Z" fill="#263238"/>
<path d="M107.627 283.117C109.34 282.643 184.684 363.601 186.396 376.981C188.108 390.36 185.368 402.023 176.465 409.57C167.56 417.117 66.1871 392.418 66.1871 392.418L75.7762 349.881L39.1305 337.531L71.8799 277.499L107.627 283.117Z" fill="#263238"/>
<g opacity="0.3">
<path d="M125.451 301.059L127.865 303.657C127.865 303.657 84.6779 349.036 71.43 348.414L50.2256 341.219L121.964 297.122L125.451 301.059Z" fill="black"/>
</g>
<path d="M75.5278 350.987C75.4637 351.205 91.194 356.027 110.657 361.756C130.127 367.487 145.957 371.954 146.021 371.737C146.085 371.519 130.358 366.698 110.888 360.968C91.4252 355.239 75.5918 350.77 75.5278 350.987Z" fill="#455A64"/>
<path d="M160.327 365.764L147.076 407.87C147.076 407.87 185.352 435.502 183.66 443.522L101.231 420.719L119.189 354.264L160.327 365.764Z" fill="#455A64"/>
<path d="M122.575 397.242C120.858 397.237 119.261 398.729 119.186 400.445C119.111 402.162 120.611 403.803 122.328 403.838C124.043 403.874 126.017 402.142 125.899 400.426C125.782 398.713 123.915 396.882 122.242 397.261" fill="#E0E0E0"/>
<path d="M100.694 422.44L102.427 416L181.561 438.433C181.561 438.433 184.79 441.048 183.66 443.522L100.694 422.44Z" fill="#E0E0E0"/>
<path d="M148.529 407.819C148.404 408.218 146.341 407.844 144.003 408.593C141.645 409.28 140.142 410.745 139.816 410.482C139.466 410.301 140.731 408.057 143.578 407.201C146.416 406.32 148.718 407.475 148.529 407.819Z" fill="#263238"/>
<path d="M156.187 413.793C156.171 414.21 154.239 414.413 152.401 415.74C150.525 417.012 149.672 418.762 149.277 418.633C148.88 418.591 149.253 416.153 151.569 414.548C153.868 412.92 156.284 413.407 156.187 413.793Z" fill="#263238"/>
<path d="M158.239 425.515C157.85 425.5 157.846 423.331 159.488 421.409C161.117 419.475 163.254 419.129 163.332 419.513C163.468 419.907 161.919 420.754 160.595 422.353C159.233 423.919 158.65 425.587 158.239 425.515Z" fill="#263238"/>
<path d="M150.484 397.888C150.214 398.209 148.521 397.142 146.204 396.668C143.895 396.147 141.916 396.42 141.8 396.018C141.647 395.661 143.787 394.647 146.51 395.245C149.235 395.821 150.77 397.625 150.484 397.888Z" fill="#263238"/>
<g opacity="0.3">
<path d="M103.659 400.887L109.266 378.819L105.09 376.871L130.572 307.385L135.437 311.622L115.409 375.278L108.244 401.847L103.659 400.887Z" fill="black"/>
</g>
<path d="M6.64978 283.405C6.64978 283.405 157.287 230.844 160.025 229.816C160.777 229.534 162.172 229.199 163.801 228.864C173.793 226.805 184.318 228.885 192.476 235.02C199.316 240.165 205.026 248.409 203.178 261.375C199.067 290.19 162.303 388.553 162.303 388.553L111.436 373.234C111.145 373.147 110.86 372.306 111.019 372.565C111.436 373.234 136.829 291.293 136.188 292.257C135.504 293.287 84.8513 334.22 63.8 341.755C42.1722 349.496 20.7741 340.237 10.4788 325.809C5.54839 318.897 1.37094 299.438 6.64978 283.405Z" fill="#263238"/>
<path d="M6.64978 283.405C6.64978 283.405 6.47012 283.932 6.14361 285.004C5.78117 286.071 5.40311 287.693 4.9688 289.829C4.20486 294.107 3.56746 300.61 4.69697 308.857C5.30781 312.954 6.22173 317.534 8.26359 322.193C8.77444 323.354 9.37278 324.512 10.1117 325.621C10.8772 326.702 11.7146 327.762 12.5848 328.824C14.4204 330.868 16.4154 332.938 18.7822 334.721C23.4033 338.423 29.1415 341.385 35.6217 343.177C38.868 344.025 42.2925 344.657 45.845 344.757C49.3929 344.97 53.0517 344.648 56.7214 343.97C57.6353 343.773 58.5539 343.574 59.4772 343.376C60.3958 343.157 61.2941 342.834 62.2112 342.565C64.0687 342.08 65.8106 341.215 67.6275 340.492C69.41 339.692 71.141 338.742 72.9313 337.86C74.6638 336.877 76.4151 335.883 78.1852 334.88C85.1747 330.719 92.1985 325.994 99.363 320.947C106.521 315.893 113.808 310.491 121.211 304.784C124.917 301.936 128.641 298.999 132.383 295.971C133.312 295.204 134.245 294.434 135.181 293.662C135.417 293.459 135.638 293.29 135.887 293.057L136.256 292.711L136.438 292.537C136.157 292.472 137.196 292.561 135.831 292.368C135.801 292.09 135.82 292.312 135.804 292.285C135.67 292.839 135.49 293.44 135.324 294.019C134.626 296.354 133.922 298.704 133.214 301.07C127.443 319.97 121.278 339.814 114.714 360.36C113.879 362.924 113.04 365.498 112.197 368.083C111.766 369.368 111.336 370.671 110.861 371.926C110.825 372.042 110.685 372.317 110.736 372.258C112.059 372.813 111.158 371.45 110.56 372.615C110.583 372.724 110.602 372.763 110.622 372.818C110.663 372.92 110.705 373.011 110.758 373.103C110.855 373.258 110.991 373.535 111.361 373.649L111.852 373.798L113.818 374.391C119.068 375.973 124.362 377.569 129.697 379.176C140.369 382.39 151.205 385.656 162.181 388.963L162.57 389.08L162.709 388.701C164.385 384.138 166.19 379.229 168.004 374.294C176.127 351.884 183.846 329.924 190.744 308.525C194.174 297.822 197.474 287.28 200.211 276.803C200.936 274.196 201.487 271.554 202.129 268.954C202.739 266.345 203.159 263.701 203.618 261.084C204.345 255.801 203.813 250.312 201.631 245.52C199.491 240.702 195.791 236.817 191.629 233.939C187.449 231.041 182.682 229.155 177.825 228.296C172.965 227.434 168.016 227.567 163.342 228.597C162.178 228.892 161.017 229.188 159.863 229.482C158.752 229.872 157.646 230.258 156.546 230.645C154.343 231.416 152.159 232.182 149.994 232.941C132.675 239.014 116.541 244.672 101.811 249.836C72.3939 260.18 48.5852 268.55 32.1113 274.343C23.9126 277.243 17.5418 279.496 13.2003 281.033C11.0584 281.799 9.42121 282.385 8.29795 282.787C7.19813 283.184 6.64978 283.405 6.64978 283.405C6.64978 283.405 7.24031 283.227 8.36201 282.849C9.49776 282.461 11.1553 281.896 13.3221 281.158C17.6871 279.652 24.0907 277.441 32.3332 274.597C48.8274 268.869 72.6626 260.594 102.116 250.368C116.835 245.243 132.956 239.632 150.263 233.607C152.426 232.853 154.607 232.094 156.807 231.327C157.907 230.944 159.011 230.559 160.119 230.172C161.242 229.889 162.37 229.606 163.501 229.321C168.079 228.32 172.934 228.196 177.691 229.047C182.445 229.895 187.104 231.747 191.186 234.584C195.254 237.405 198.841 241.189 200.904 245.852C203.009 250.49 203.526 255.811 202.812 260.981C202.353 263.566 201.937 266.184 201.328 268.78C200.686 271.37 200.137 273.996 199.411 276.596C196.674 287.042 193.37 297.575 189.936 308.267C183.034 329.646 175.31 351.597 167.19 374C165.377 378.932 163.575 383.839 161.898 388.401L162.426 388.139C151.448 384.834 140.611 381.573 129.939 378.361C124.603 376.755 119.308 375.162 114.059 373.582L112.092 372.99L111.602 372.843C111.55 372.801 111.441 373.192 111.569 372.896C111.644 372.807 111.583 372.865 111.586 372.832C111.559 372.802 111.524 372.748 111.492 372.693C111.459 372.637 111.43 372.572 111.406 372.515C111.305 372.505 111.588 372.413 111.188 372.51C111.217 372.449 109.861 372.926 111.352 372.842C111.583 372.491 111.553 372.439 111.647 372.241C112.139 370.939 112.561 369.649 112.995 368.355C113.837 365.765 114.676 363.188 115.51 360.622C122.066 340.063 128.211 320.218 133.964 301.304C134.67 298.934 135.371 296.579 136.068 294.241C136.237 293.648 136.407 293.082 136.559 292.454C136.559 292.354 136.596 292.501 136.57 292.148C135.231 291.972 136.104 292.104 135.807 292.096L135.656 292.231L135.356 292.503C135.162 292.684 134.904 292.888 134.682 293.079C133.753 293.849 132.825 294.615 131.902 295.379C128.172 298.405 124.456 301.346 120.758 304.195C113.37 309.905 106.101 315.315 98.96 320.376C91.8158 325.427 84.8122 330.159 77.8555 334.32C76.0964 335.323 74.3545 336.315 72.6314 337.298C70.8582 338.177 69.1366 339.127 67.3744 339.922C65.5809 340.639 63.8625 341.501 62.0299 341.983C61.1254 342.251 60.2396 342.573 59.3319 342.79C58.4196 342.989 57.5135 343.188 56.6121 343.384C52.9908 344.061 49.3788 344.39 45.8732 344.189C42.3628 344.1 38.9774 343.485 35.7638 342.657C29.3524 340.906 23.6627 337.997 19.0759 334.35C16.7247 332.594 14.7454 330.553 12.9191 328.538C12.0552 327.491 11.2178 326.441 10.4617 325.383C9.73678 324.307 9.14313 323.169 8.63228 322.027C6.59198 317.434 5.65463 312.879 5.02348 308.809C3.85023 300.61 4.42983 294.13 5.13753 289.857C5.54371 287.721 5.89522 286.1 6.22173 285.043C6.51231 283.975 6.64978 283.405 6.64978 283.405Z" fill="#455A64"/>
<path d="M159.431 269.697C159.381 269.611 157.732 270.428 155.238 272.044C152.745 273.658 149.436 276.124 146.146 279.26C142.859 282.402 140.255 285.616 138.588 288.082C137.751 289.312 137.119 290.339 136.73 291.076C136.335 291.808 136.14 292.226 136.19 292.254C136.304 292.321 137.282 290.772 139.06 288.422C140.83 286.067 143.465 282.959 146.713 279.854C149.964 276.756 153.178 274.248 155.568 272.523C157.957 270.799 159.497 269.808 159.431 269.697Z" fill="#455A64"/>
<path d="M142.067 264.02C141.972 263.979 141.231 265.427 140.277 267.871C139.322 270.315 138.194 273.775 137.323 277.689C136.455 281.607 136.012 285.219 135.845 287.837C135.674 290.456 135.734 292.08 135.837 292.085C135.96 292.09 136.107 290.478 136.423 287.891C136.737 285.305 137.266 281.745 138.124 277.867C138.988 273.991 140.014 270.544 140.824 268.066C141.633 265.589 142.183 264.067 142.067 264.02Z" fill="#455A64"/>
<path d="M204.634 187.144L223.909 148.13C225.218 145.48 227.931 143.8 230.903 143.8H279.334C281.131 143.8 282.279 145.704 281.431 147.278L248.647 208.071C247.728 209.775 245.939 210.839 243.993 210.839H193.762L204.634 187.144Z" fill="#455A64"/>
<path d="M281.11 147.563C281.11 147.595 280.776 147.62 280.142 147.642C279.406 147.654 278.489 147.67 277.367 147.688C274.829 147.688 271.376 147.69 267.167 147.692C258.445 147.618 246.616 147.516 233.545 147.405C231.945 147.471 230.365 147.726 229.073 148.48C227.772 149.216 226.843 150.452 226.102 151.748C224.694 154.414 223.51 157.195 222.284 159.73C219.878 164.823 217.705 169.426 215.858 173.335C214.041 177.106 212.551 180.199 211.454 182.473C210.954 183.47 210.544 184.285 210.216 184.939C209.923 185.498 209.756 185.786 209.728 185.773C209.7 185.761 209.811 185.448 210.05 184.863C210.337 184.19 210.695 183.351 211.134 182.326C212.164 180.023 213.565 176.888 215.274 173.067C217.069 169.135 219.183 164.504 221.523 159.381C222.742 156.81 223.866 154.104 225.326 151.313C226.097 149.951 227.114 148.562 228.619 147.703C230.109 146.836 231.843 146.571 233.507 146.502C246.697 146.588 258.556 146.873 267.178 147.052C271.387 147.169 274.838 147.266 277.375 147.336C278.495 147.386 279.412 147.427 280.146 147.46C280.779 147.496 281.112 147.532 281.11 147.563Z" fill="#263238"/>
<path d="M251.268 156.11C252.442 156.716 252.487 157.678 251.995 158.523C251.503 159.368 250.379 159.749 249.431 159.489C248.803 159.317 248.219 158.846 248.095 158.209C247.972 157.573 248.559 156.2 249.575 155.99C249.575 155.99 250.684 155.808 251.268 156.11Z" fill="white"/>
<path d="M175.032 202.184L178.372 198.771C178.372 198.771 183.276 191.685 185.282 189.471C187.288 187.257 199.325 179.508 199.325 179.508C199.325 179.508 205.126 171.699 206.016 171.699C206.908 171.699 209.73 172.2 208.969 175.83C208.236 179.326 206.904 184.025 205.788 186.305L231.496 186.866C233.117 186.9 234.685 187.592 235.685 188.858C236.357 189.707 236.638 190.646 235.433 191.244C232.759 192.573 221.836 195.23 221.836 195.23L226.713 193.981C226.713 193.981 227.758 198.614 224.674 200.815C221.606 203.002 221.39 203.422 221.39 203.422C221.39 203.422 221.239 207.805 219.901 209.576C218.564 211.347 204.081 218.749 204.081 218.749C204.081 218.749 194.824 221.466 190.144 221.245C185.463 221.024 180.647 223.66 180.12 223.802C179.595 223.944 175.032 202.184 175.032 202.184Z" fill="#FFBF9D"/>
<path d="M208.264 186.418C208.258 186.673 205.018 186.803 201.042 187.222C197.066 187.659 193.784 187.856 193.762 187.579C193.748 187.358 196.933 186.765 200.951 186.324C204.98 185.899 208.275 186.174 208.264 186.418Z" fill="#FF9A6C"/>
<path d="M204.832 197.751C204.752 197.477 209.442 196.206 215.335 195.533C218.275 195.162 220.936 194.899 222.857 194.688C224.779 194.485 225.963 194.325 225.994 194.452C226.022 194.568 224.869 194.953 222.954 195.32C221.042 195.696 218.381 196.061 215.451 196.43C209.575 197.101 204.893 197.959 204.832 197.751Z" fill="#FF9A6C"/>
<path d="M204.832 206.107C204.834 205.839 208.58 205.727 213.104 204.944C217.635 204.185 221.206 203.052 221.295 203.304C221.386 203.519 217.886 205.057 213.257 205.834C208.635 206.633 204.818 206.338 204.832 206.107Z" fill="#FF9A6C"/>
<path d="M206.385 215.471C206.136 215.511 205.763 214.508 205.551 213.23C205.338 211.951 205.366 210.881 205.615 210.84C205.863 210.8 206.235 211.803 206.447 213.081C206.661 214.36 206.633 215.429 206.385 215.471Z" fill="#FF9A6C"/>
<path d="M204.082 204.26C203.824 204.24 203.69 203.409 203.248 202.534C202.828 201.647 202.254 201.029 202.398 200.815C202.514 200.6 203.518 201.012 204.067 202.138C204.62 203.263 204.324 204.303 204.082 204.26Z" fill="#FF9A6C"/>
<path d="M201.148 193.037C200.894 193.064 200.631 192.53 200.32 191.925C200.019 191.314 199.747 190.784 199.92 190.598C200.083 190.413 200.747 190.749 201.133 191.521C201.522 192.289 201.394 193.018 201.148 193.037Z" fill="#FF9A6C"/>
<path d="M209.8 121.931C209.8 121.931 210.373 114.614 214.165 109.946C224.102 97.7091 220.795 86.7975 220.795 86.7975C224.235 82.9887 229.953 87.5408 231.072 96.2585C233.395 114.365 230.308 134.752 230.123 135.495C229.876 136.481 219.584 140.856 219.584 140.856L205.851 124.784L209.8 121.931Z" fill="#FFBF9D"/>
<path d="M469.768 138.565H238.152C230.689 138.565 224.638 132.505 224.638 125.03V25.7032C224.638 18.228 230.689 12.1674 238.152 12.1674H469.768C477.23 12.1674 483.281 18.228 483.281 25.7032V125.03C483.281 132.505 477.232 138.565 469.768 138.565Z" fill="white"/>
<path d="M469.768 138.565C469.766 138.528 470.425 138.559 471.681 138.373C472.928 138.193 474.814 137.736 476.91 136.409C478.982 135.109 481.269 132.801 482.434 129.358C483.044 127.644 483.208 125.701 483.142 123.601C483.136 121.504 483.129 119.271 483.123 116.906C483.092 97.9735 483.048 70.6046 482.994 36.7885C482.992 34.6744 482.989 32.5353 482.987 30.3711C482.986 29.2898 482.986 28.2007 482.984 27.1069C482.981 26.0052 483 24.9223 482.837 23.8551C482.281 19.5643 479.374 15.5271 475.245 13.6853C473.195 12.6885 470.913 12.4365 468.572 12.4882C466.223 12.4897 463.85 12.4929 461.455 12.4944C456.665 12.4976 451.786 12.5023 446.823 12.5054C426.967 12.5163 405.753 12.5304 383.43 12.543C338.779 12.5523 289.693 12.5633 238.17 12.5742C235.04 12.5805 231.948 13.7307 229.598 15.7696C227.227 17.7851 225.649 20.6816 225.208 23.7378C224.976 25.2494 225.063 26.8487 225.046 28.4401C225.046 30.0284 225.046 31.6136 225.046 33.1956C225.046 36.3613 225.046 39.5145 225.044 42.6566C225.043 55.2254 225.04 67.6111 225.038 79.7808C225.035 91.9505 225.032 103.904 225.029 115.612C225.027 118.539 225.027 121.451 225.026 124.346C224.913 127.202 225.696 129.99 227.228 132.322C228.789 134.617 231.039 136.447 233.632 137.367C236.204 138.425 239.028 138.143 241.826 138.188C286.478 138.221 326.689 138.251 360.463 138.276C394.223 138.331 421.544 138.374 440.444 138.406C449.875 138.439 457.202 138.465 462.189 138.482C464.664 138.5 466.554 138.514 467.844 138.523C469.116 138.537 469.768 138.565 469.768 138.565C469.768 138.565 469.115 138.594 467.841 138.608C466.551 138.617 464.661 138.631 462.186 138.648C457.199 138.666 449.872 138.692 440.441 138.725C421.541 138.756 394.22 138.8 360.46 138.855C326.686 138.88 286.475 138.91 241.823 138.943C240.422 138.932 239.042 138.971 237.61 138.917C236.168 138.885 234.729 138.586 233.368 138.082C230.623 137.109 228.242 135.179 226.589 132.75C224.963 130.303 224.135 127.289 224.251 124.349C224.249 121.454 224.249 118.542 224.248 115.616C224.245 103.909 224.241 91.9536 224.238 79.7839C224.237 67.6142 224.234 55.2285 224.232 42.6598C224.232 39.5176 224.232 36.3629 224.23 33.1988C224.23 31.6167 224.23 30.0315 224.23 28.4432C224.249 26.8643 224.154 25.2635 224.402 23.6204C224.871 20.3718 226.547 17.2954 229.064 15.1562C231.557 12.9905 234.848 11.7668 238.167 11.7621C289.69 11.773 338.776 11.784 383.427 11.7934C405.75 11.8059 426.965 11.8184 446.82 11.8309C451.783 11.8341 456.662 11.8388 461.452 11.8419C463.847 11.8435 466.22 11.8466 468.569 11.8482C470.906 11.795 473.381 12.0672 475.503 13.1141C479.825 15.0529 482.858 19.2827 483.431 23.7722C483.6 24.8942 483.576 26.024 483.578 27.1084C483.576 28.2023 483.576 29.2914 483.575 30.3727C483.573 32.5368 483.57 34.676 483.568 36.7901C483.514 70.6062 483.47 97.9751 483.439 116.908C483.433 119.273 483.426 121.506 483.42 123.602C483.476 125.688 483.295 127.71 482.662 129.438C481.452 132.935 479.108 135.257 476.998 136.55C474.86 137.871 472.95 138.302 471.692 138.457C471.061 138.572 470.575 138.543 470.253 138.565C469.932 138.572 469.768 138.565 469.768 138.565Z" fill="#263238"/>
<path d="M287.409 71.2852V87.9585L326.62 104.802L326.953 88.8427L305.044 79.0499L326.953 69.6844V54.2207L287.409 71.2852Z" fill="#EBEBEB"/>
<path d="M420.51 89.0774V72.4056L380.957 55.5602L380.622 71.5199L402.722 81.3127L380.622 90.6798V106.143L420.51 89.0774Z" fill="#EBEBEB"/>
<path d="M356.241 40.4564C356.241 40.8711 333.208 118.704 333.86 118.567C334.511 118.429 351.012 118.556 351.012 118.556L373.727 40.4564H356.241Z" fill="#EBEBEB"/>
<path d="M251.535 28.9315C251.535 31.7623 249.095 34.0563 246.086 34.0563C243.077 34.0563 240.637 31.7623 240.637 28.9315C240.637 26.1007 243.077 23.8066 246.086 23.8066C249.095 23.8066 251.535 26.1007 251.535 28.9315Z" fill="#E0E0E0"/>
<path d="M266.505 28.9315C266.505 31.7623 264.065 34.0563 261.056 34.0563C258.047 34.0563 255.607 31.7623 255.607 28.9315C255.607 26.1007 258.047 23.8066 261.056 23.8066C264.065 23.8066 266.505 26.1007 266.505 28.9315Z" fill="#E0E0E0"/>
<path d="M281.474 28.9315C281.474 31.7623 279.034 34.0563 276.025 34.0563C273.016 34.0563 270.576 31.7623 270.576 28.9315C270.576 26.1007 273.016 23.8066 276.025 23.8066C279.034 23.8066 281.474 26.1007 281.474 28.9315Z" fill="#E0E0E0"/>
</svg>
