<svg width="771" height="616" viewBox="0 0 771 616" fill="none" xmlns="http://www.w3.org/2000/svg">
<path d="M715.94 604.774H50.8637C38.2954 604.774 28.1065 594.568 28.1065 581.979V156.884C28.1065 144.294 38.2954 134.089 50.8637 134.089H715.94C728.508 134.089 738.697 144.294 738.697 156.884V581.977C738.697 594.568 728.508 604.774 715.94 604.774Z" fill="#455A64"/>
<path d="M742.403 615.56H28.1393C12.7839 615.56 0.334351 603.092 0.334351 587.709V574.375H770.206V587.709C770.206 603.09 757.758 615.56 742.403 615.56Z" fill="#455A64"/>
<path d="M313.353 569.961L322.906 585.182H457.334L466.206 569.961H313.353Z" fill="#263238"/>
<path d="M700.094 549.003H66.1035C63.2789 549.003 60.9902 546.711 60.9902 543.881V171.368C60.9902 168.538 63.2789 166.246 66.1035 166.246H700.094C702.917 166.246 705.207 168.538 705.207 171.366V543.883C705.206 546.711 702.917 549.003 700.094 549.003Z" fill="#EBEBEB"/>
<path d="M704.517 549.563H60.3013L60.9902 194.85H704.517V549.563Z" fill="white"/>
<path d="M113.825 181.027C113.825 183.874 111.521 186.18 108.681 186.18C105.839 186.18 103.537 183.874 103.537 181.027C103.537 178.181 105.839 175.874 108.681 175.874C111.523 175.874 113.825 178.181 113.825 181.027Z" fill="#263238"/>
<path d="M82.643 181.027C82.643 183.874 80.3403 186.18 77.497 186.18C74.6568 186.18 72.3525 183.874 72.3525 181.027C72.3525 178.181 74.6568 175.874 77.497 175.874C80.3403 175.874 82.643 178.181 82.643 181.027Z" fill="#263238"/>
<path d="M97.6109 181.027C97.6109 183.874 95.3081 186.18 92.4664 186.18C89.6247 186.18 87.3219 183.874 87.3219 181.027C87.3219 178.181 89.6247 175.874 92.4664 175.874C95.3081 175.874 97.6109 178.181 97.6109 181.027Z" fill="#263238"/>
<path d="M732.592 569.961C732.592 570.216 574.875 570.423 380.367 570.423C185.79 570.423 28.108 570.216 28.108 569.961C28.108 569.707 185.79 569.501 380.367 569.501C574.875 569.501 732.592 569.707 732.592 569.961Z" fill="#263238"/>
<path d="M611.889 510.4H602.516C602.085 510.4 601.735 510.05 601.735 509.618C601.735 509.186 602.085 508.835 602.516 508.835H611.108V500.229C611.108 499.797 611.458 499.446 611.889 499.446C612.32 499.446 612.67 499.797 612.67 500.229V509.618C612.67 510.05 612.322 510.4 611.889 510.4Z" fill="#E0E0E0"/>
<path d="M584.292 510.4H566.068C565.637 510.4 565.287 510.05 565.287 509.618C565.287 509.186 565.637 508.835 566.068 508.835H584.292C584.723 508.835 585.073 509.186 585.073 509.618C585.073 510.05 584.725 510.4 584.292 510.4ZM547.845 510.4H529.621C529.19 510.4 528.84 510.05 528.84 509.618C528.84 509.186 529.19 508.835 529.621 508.835H547.845C548.276 508.835 548.626 509.186 548.626 509.618C548.626 510.05 548.278 510.4 547.845 510.4ZM511.398 510.4H493.174C492.743 510.4 492.393 510.05 492.393 509.618C492.393 509.186 492.743 508.835 493.174 508.835H511.398C511.829 508.835 512.179 509.186 512.179 509.618C512.179 510.05 511.829 510.4 511.398 510.4ZM474.95 510.4H456.727C456.296 510.4 455.946 510.05 455.946 509.618C455.946 509.186 456.296 508.835 456.727 508.835H474.95C475.382 508.835 475.731 509.186 475.731 509.618C475.731 510.05 475.382 510.4 474.95 510.4Z" fill="#E0E0E0"/>
<path d="M438.505 510.4H429.131C428.7 510.4 428.35 510.05 428.35 509.618V500.229C428.35 499.797 428.7 499.446 429.131 499.446C429.562 499.446 429.912 499.797 429.912 500.229V508.835H438.505C438.936 508.835 439.286 509.186 439.286 509.618C439.286 510.05 438.936 510.4 438.505 510.4Z" fill="#E0E0E0"/>
<path d="M429.131 481.443C428.7 481.443 428.35 481.092 428.35 480.661V461.092C428.35 460.66 428.7 460.31 429.131 460.31C429.562 460.31 429.912 460.66 429.912 461.092V480.661C429.912 481.092 429.562 481.443 429.131 481.443ZM429.131 442.305C428.7 442.305 428.35 441.954 428.35 441.522V421.954C428.35 421.522 428.7 421.172 429.131 421.172C429.562 421.172 429.912 421.522 429.912 421.954V441.522C429.912 441.954 429.562 442.305 429.131 442.305ZM429.131 403.168C428.7 403.168 428.35 402.818 428.35 402.386V382.816C428.35 382.384 428.7 382.034 429.131 382.034C429.562 382.034 429.912 382.384 429.912 382.816V402.386C429.912 402.819 429.562 403.168 429.131 403.168Z" fill="#E0E0E0"/>
<path d="M429.131 364.029C428.7 364.029 428.35 363.678 428.35 363.246V353.857C428.35 353.425 428.7 353.075 429.131 353.075H438.505C438.936 353.075 439.286 353.425 439.286 353.857C439.286 354.289 438.936 354.64 438.505 354.64H429.912V363.246C429.912 363.68 429.562 364.029 429.131 364.029Z" fill="#E0E0E0"/>
<path d="M584.294 354.64H566.07C565.639 354.64 565.289 354.289 565.289 353.857C565.289 353.425 565.639 353.075 566.07 353.075H584.294C584.725 353.075 585.075 353.425 585.075 353.857C585.075 354.291 584.726 354.64 584.294 354.64ZM547.846 354.64H529.623C529.192 354.64 528.842 354.289 528.842 353.857C528.842 353.425 529.192 353.075 529.623 353.075H547.846C548.278 353.075 548.628 353.425 548.628 353.857C548.628 354.291 548.278 354.64 547.846 354.64ZM511.399 354.64H493.176C492.744 354.64 492.394 354.289 492.394 353.857C492.394 353.425 492.744 353.075 493.176 353.075H511.399C511.83 353.075 512.18 353.425 512.18 353.857C512.18 354.291 511.83 354.64 511.399 354.64ZM474.952 354.64H456.728C456.297 354.64 455.947 354.289 455.947 353.857C455.947 353.425 456.297 353.075 456.728 353.075H474.952C475.383 353.075 475.733 353.425 475.733 353.857C475.733 354.291 475.383 354.64 474.952 354.64Z" fill="#E0E0E0"/>
<path d="M611.889 364.029C611.458 364.029 611.108 363.678 611.108 363.246V354.64H602.516C602.085 354.64 601.735 354.289 601.735 353.857C601.735 353.425 602.085 353.075 602.516 353.075H611.889C612.32 353.075 612.67 353.425 612.67 353.857V363.246C612.67 363.68 612.322 364.029 611.889 364.029Z" fill="#E0E0E0"/>
<path d="M611.889 481.443C611.458 481.443 611.108 481.092 611.108 480.661V461.091C611.108 460.659 611.458 460.308 611.889 460.308C612.32 460.308 612.67 460.659 612.67 461.091V480.661C612.67 481.092 612.322 481.443 611.889 481.443ZM611.889 442.305C611.458 442.305 611.108 441.954 611.108 441.522V421.954C611.108 421.522 611.458 421.172 611.889 421.172C612.32 421.172 612.67 421.522 612.67 421.954V441.522C612.67 441.954 612.322 442.305 611.889 442.305ZM611.889 403.167C611.458 403.167 611.108 402.816 611.108 402.384V382.816C611.108 382.384 611.458 382.034 611.889 382.034C612.32 382.034 612.67 382.384 612.67 382.816V402.384C612.67 402.818 612.322 403.167 611.889 403.167Z" fill="#E0E0E0"/>
<path d="M430.251 34.7529C426.283 42.6396 426.516 52.4574 430.851 60.0797C432.957 63.7821 436.086 67.6645 434.947 71.7925C433.821 75.8783 428.887 78.1145 427.903 82.2362C426.745 87.0888 431.56 91.2106 432.612 96.0694C433.599 100.629 430.657 105.729 426.194 107.192C433.013 108.859 440.311 108.599 447.027 106.45C447.673 103.624 448.322 100.797 448.969 97.9706C448.148 101.006 450.257 104.225 453.076 105.593C455.894 106.961 459.206 106.864 462.326 106.433C477.225 104.372 490.971 94.9208 498.236 81.7417" fill="#263238"/>
<path d="M518.962 34.2412C516.608 31.7531 513.697 29.7924 511.621 27.0696C507.158 21.2171 506.906 12.3664 500.968 8.00673C496.741 4.90366 490.954 5.14777 485.736 5.91298C480.518 6.67975 475.064 7.81582 470.098 6.10233C466.456 4.8442 463.457 2.15738 459.82 0.886731C454.636 -0.922218 448.848 0.375029 443.724 2.43122C438.464 4.54375 433.404 7.53884 429.858 11.9611C426.311 16.3849 424.469 22.4048 426.011 27.8191C426.763 30.459 428.272 32.8829 428.603 35.6104C428.967 38.6102 427.864 41.6006 427.739 44.6223C427.474 51.01 432.162 57.2192 438.378 58.7152L494.663 87.1357C503.339 86.4081 519.64 74.5889 522.797 66.4752C525.955 58.3631 524.908 40.5287 518.962 34.2412Z" fill="#263238"/>
<path d="M436.614 52.5529C433.255 41.6366 435.407 25.8333 446.511 22.857L483.035 18.4379C486.409 17.5334 489.893 19.3486 491.057 22.6176L518.807 100.811C518.867 100.801 519.765 101.883 521.016 100.582C521.341 100.244 521.902 100.517 521.826 100.977C520.604 108.242 522.033 125.193 500.159 126.634C495.272 126.956 485.669 127.344 482.941 122.794L477.755 110.325C475.235 103.9 474.233 101.252 474.252 101.313C474.252 101.313 459.703 104.308 450.14 87.6318C445.383 79.3397 440.347 64.6819 436.614 52.5529Z" fill="#AE7461"/>
<path d="M448.048 66.7272C448.461 67.9462 449.84 68.5956 451.128 68.1778C452.413 67.7615 453.126 66.4377 452.712 65.2171C452.299 63.9981 450.92 63.3471 449.634 63.7649C448.345 64.1812 447.634 65.5082 448.048 66.7272Z" fill="#263238"/>
<path d="M470.181 58.3741C470.593 59.5947 471.971 60.2425 473.26 59.8247C474.546 59.4085 475.258 58.083 474.844 56.864C474.432 55.645 473.052 54.9941 471.766 55.4119C470.479 55.8297 469.768 57.1551 470.181 58.3741Z" fill="#263238"/>
<path d="M441.809 59.5383C442.238 59.8262 443.69 57.5588 446.441 56.7107C449.176 55.8171 451.671 56.8343 451.856 56.3507C451.952 56.1317 451.426 55.5323 450.331 55.0629C449.251 54.5919 447.567 54.3305 445.858 54.872C444.149 55.4165 442.923 56.5996 442.312 57.6073C441.684 58.6229 441.601 59.4131 441.809 59.5383Z" fill="#263238"/>
<path d="M466.044 51.3182C466.522 51.5451 467.861 49.1243 470.687 47.9288C473.494 46.691 476.209 47.3576 476.363 46.8584C476.444 46.63 475.844 46.112 474.646 45.7959C473.468 45.4751 471.671 45.4423 469.915 46.1997C468.161 46.9602 466.967 48.284 466.409 49.3544C465.839 50.4357 465.817 51.2228 466.044 51.3182Z" fill="#263238"/>
<path d="M464.972 71.647C464.93 71.5031 463.299 71.8286 460.695 72.4654C460.04 72.6423 459.397 72.7471 459.129 72.3606C458.809 71.9647 458.817 71.1901 458.847 70.3435C458.865 68.6019 458.884 66.7757 458.904 64.8619C458.92 57.0831 458.679 50.7831 458.365 50.7878C458.051 50.7925 457.783 57.1019 457.767 64.8822C457.78 66.7945 457.787 68.6191 457.8 70.3623C457.83 71.1651 457.727 72.129 458.403 72.9443C458.75 73.3464 459.34 73.5092 459.784 73.4622C460.234 73.4294 460.59 73.2995 460.909 73.1994C463.462 72.3747 465.016 71.791 464.972 71.647Z" fill="#263238"/>
<path d="M474.252 101.313C474.252 101.313 486.564 97.4699 495.778 85.7822C495.778 85.7822 494.483 100.559 475.972 105.76L474.252 101.313Z" fill="#6F4439"/>
<path d="M468.594 77.2225C469.361 75.8486 470.912 74.93 472.569 74.8674C473.719 74.8236 474.939 75.2007 475.753 76.0192C476.569 76.8376 476.894 78.1207 476.389 79.0878C475.822 80.1769 474.382 80.6198 473.087 80.4492C471.791 80.2786 470.607 79.6183 469.476 78.9517C469.164 78.767 468.843 78.5745 468.625 78.2913C468.406 78.0096 468.312 77.6106 468.495 77.3227" fill="#6F4439"/>
<path d="M473.424 72.01C473.015 72.1415 474.016 74.8032 472.441 77.573C470.873 80.3459 467.906 81.1424 468.026 81.5211C468.051 81.7026 468.858 81.7949 470.073 81.3646C471.27 80.9515 472.852 79.9124 473.816 78.2193C474.775 76.5246 474.791 74.7485 474.469 73.6218C474.15 72.4701 473.602 71.924 473.424 72.01Z" fill="#263238"/>
<path d="M461.487 43.6192C462.079 44.0902 464.149 42.4174 466.978 41.1061C469.784 39.7384 472.379 39.1939 472.396 38.4334C472.393 38.0766 471.673 37.7323 470.453 37.6744C469.242 37.6118 467.541 37.8935 465.85 38.6947C464.161 39.499 462.865 40.6445 462.141 41.6256C461.41 42.6115 461.215 43.3892 461.487 43.6192Z" fill="#263238"/>
<path d="M438.833 52.0318C439.55 52.4543 441.603 51.2604 444.252 50.5124C446.883 49.6924 449.265 49.5719 449.623 48.8302C449.773 48.4765 449.265 47.9961 448.136 47.7176C447.022 47.4375 445.283 47.4312 443.468 47.9695C441.654 48.5094 440.209 49.4577 439.442 50.298C438.661 51.1414 438.509 51.8174 438.833 52.0318Z" fill="#263238"/>
<path d="M491.174 17.5945C488.437 15.9139 484.986 16.0171 481.768 16.2644C467.887 17.3269 454.121 20.045 440.856 24.3421C440.496 27.6298 443.566 30.4168 446.788 31.1601C450.007 31.9034 453.371 31.2054 456.674 30.9175C459.976 30.6312 463.613 30.8737 466.064 33.0754C468.67 35.418 469.259 39.3754 471.743 41.8463C476.017 46.098 484.005 44.336 488.254 48.6111C491.468 51.8456 491.146 57.0612 492.499 61.4193C494.033 66.3563 498.061 70.4359 502.986 72.0398C506.872 73.3058 511.224 72.9834 514.963 71.2981C508.898 56.1614 502.833 41.0263 496.769 25.8897C495.503 22.735 494.069 19.3737 491.174 17.5945Z" fill="#263238"/>
<path d="M538.528 40.6507C535.206 39.6759 531.424 39.2627 529.088 36.723C525.687 33.0222 526.801 26.2511 522.68 23.3656C518.921 20.7335 512.929 23.7975 509.279 21.0183C506.428 18.8479 506.951 15.4851 505.194 13.227C503.436 10.9674 498.782 10.462 496.333 11.9924L489.782 50.7455C492.496 61.4177 493.051 67.5205 497.853 72.2401C500.487 74.8283 503.435 77.1709 505.445 80.2692C507.456 83.3661 508.367 87.5238 506.562 90.7756C519.112 85.9809 527.498 74.3088 535.123 63.2517C537.814 59.3505 540.504 55.451 543.194 51.5498C544.033 50.3324 544.9 49.0461 545.058 47.5814C545.428 44.1372 541.847 41.6272 538.528 40.6507Z" fill="#263238"/>
<path d="M534.044 60.1595C534.044 60.1595 533.688 60.5242 532.866 61.0186C532.049 61.51 530.765 62.1672 528.971 62.5412C527.195 62.9105 524.878 63.0185 522.39 62.2204C519.912 61.449 517.351 59.6244 515.623 56.8311C514.767 55.4369 514.124 53.8094 513.853 52.0302C513.583 50.24 513.775 48.3685 514.002 46.4938C514.214 44.6207 514.492 42.6725 514.142 40.7556C513.802 38.8731 512.871 36.8842 511.098 35.9625C509.307 35.0189 507.094 35.6292 504.839 35.7685C503.707 35.842 502.443 35.7199 501.365 35.0924C500.29 34.4665 499.537 33.4259 499.051 32.3336C498.043 30.1194 498.042 27.6579 497.484 25.4155C497.209 24.2904 496.786 23.1934 496.061 22.3343C495.342 21.4721 494.313 20.9072 493.168 20.7226C490.837 20.311 488.514 21.1701 486.28 21.9995C484.047 22.8695 481.563 23.4548 479.184 23.1324C476.809 22.8742 474.568 21.9541 472.754 20.5567C470.937 19.1343 469.656 17.2893 468.469 15.5383C467.284 13.7794 466.156 12.0581 464.741 10.6935C463.33 9.33682 461.635 8.38227 459.89 7.77981C456.364 6.62809 452.704 6.86125 449.745 7.98168C446.763 9.10053 444.513 11.091 442.976 13.0877C441.42 15.0954 440.507 17.1266 439.97 18.826C438.917 22.2639 439.133 24.3107 439.015 24.2966C439.001 24.2966 438.992 24.173 438.984 23.9305C438.986 23.6879 438.953 23.3233 438.989 22.8492C439.023 21.8993 439.184 20.491 439.681 18.7415C440.181 17.0014 441.07 14.9092 442.63 12.8264C444.174 10.7546 446.461 8.66864 449.553 7.46998C452.612 6.27601 456.405 5.99433 460.1 7.16953C461.927 7.78607 463.721 8.77661 465.219 10.2022C466.714 11.6293 467.876 13.3913 469.064 15.1361C470.251 16.8778 471.507 18.6476 473.212 19.9714C474.921 21.2765 477.036 22.1419 479.273 22.3782C481.529 22.6708 483.791 22.1387 486.02 21.275C488.233 20.4581 490.704 19.5067 493.31 19.9589C494.592 20.1592 495.831 20.8305 496.658 21.8336C497.495 22.832 497.947 24.0447 498.237 25.2246C498.812 27.6063 498.817 29.9864 499.749 32.0207C500.195 33.0253 500.854 33.9188 501.752 34.4446C502.652 34.9704 503.73 35.0956 504.81 35.0283C505.892 34.9798 506.987 34.7779 508.109 34.7294C509.22 34.6684 510.416 34.7842 511.433 35.3272C513.5 36.4288 514.463 38.6305 514.819 40.6304C515.178 42.7007 514.867 44.6974 514.645 46.5658C514.405 48.4374 514.21 50.2447 514.452 51.9395C514.695 53.6342 515.292 55.1959 516.1 56.5416C517.728 59.2394 520.162 61.0265 522.535 61.8073C524.922 62.6148 527.176 62.56 528.92 62.2423C532.454 61.5444 533.994 60.0297 534.044 60.1595Z" fill="#455A64"/>
<path d="M540.455 31.7781C540.455 31.7781 540.837 31.9581 541.316 32.5731C541.793 33.174 542.297 34.2991 542.197 35.8013C542.13 36.5415 541.918 37.3771 541.408 38.1533C540.902 38.9232 540.124 39.6179 539.143 40.0639C537.225 40.9981 534.413 40.9199 532.269 39.2314C531.202 38.4161 530.304 37.2942 529.684 35.9734C529.062 34.6449 528.773 33.1348 528.668 31.595C528.406 28.5373 528.959 25.1745 527.567 22.1137C526.908 20.624 525.808 19.1875 524.219 18.6445C522.63 18.0702 520.838 18.5944 519.176 19.3643C517.49 20.0951 515.783 21.1623 513.68 21.3094C512.644 21.3704 511.558 21.1044 510.677 20.527C509.79 19.9589 509.092 19.1624 508.545 18.2924C507.44 16.5225 507.048 14.5383 506.47 12.7372C505.939 10.9142 505.047 9.29143 503.861 7.91438C501.485 5.17122 498.103 3.52658 494.775 3.23865C491.413 2.91003 488.297 4.17912 485.485 5.31206C482.663 6.47317 479.923 7.56229 477.258 7.74381C474.616 7.97541 472.218 7.57168 470.24 6.92384C468.248 6.28851 466.678 5.38247 465.488 4.54216C463.11 2.82084 462.254 1.4078 462.254 1.4078C462.324 1.33581 463.272 2.67844 465.661 4.29335C466.856 5.08203 468.419 5.93017 470.374 6.51072C472.318 7.10536 474.658 7.45745 477.211 7.19769C479.776 6.98956 482.423 5.90826 485.244 4.71742C488.045 3.56413 491.257 2.2043 494.842 2.52509C498.362 2.81145 501.919 4.52338 504.441 7.41363C505.694 8.85171 506.662 10.6215 507.209 12.4993C507.798 14.3474 508.197 16.2737 509.206 17.8777C510.176 19.491 511.816 20.6881 513.646 20.5379C515.463 20.4284 517.144 19.4284 518.868 18.6711C520.557 17.8933 522.593 17.2611 524.471 17.945C526.336 18.6022 527.525 20.2281 528.223 21.8211C528.945 23.4407 529.184 25.1948 529.22 26.827C529.274 28.4685 529.213 30.0443 529.31 31.545C529.398 33.0425 529.663 34.4743 530.227 35.7199C530.794 36.9624 531.624 38.0249 532.605 38.7948C534.572 40.3878 537.153 40.4974 538.964 39.668C539.881 39.2737 540.613 38.6462 541.098 37.9483C541.583 37.2472 541.805 36.4711 541.893 35.7747C542.032 34.3601 541.604 33.2678 541.185 32.6622C540.768 32.0426 540.426 31.811 540.455 31.7781Z" fill="#263238"/>
<path d="M416.238 99.4369C416.347 99.3759 416.125 100.902 417.755 102.563C418.544 103.335 419.87 104.103 421.462 103.906C423.016 103.726 424.719 102.488 425.338 100.593C425.655 99.6576 425.593 98.5904 425.196 97.581C424.801 96.5717 424.119 95.6281 423.302 94.7565C421.703 93.0243 419.35 91.4297 418.305 88.6803C417.241 86.0357 417.317 82.7777 418.722 79.9829C419.409 78.5855 420.382 77.3039 421.568 76.221C422.749 75.1178 424.185 74.3166 425.591 73.5624C427 72.8035 428.405 72.0914 429.572 71.1432C430.737 70.2089 431.613 68.9759 431.884 67.5879C432.159 66.2014 431.89 64.7633 431.39 63.4708C430.887 62.1641 430.151 60.9983 429.334 59.9092C427.709 57.7403 425.886 55.7483 424.943 53.387C423.99 51.046 423.912 48.6017 424.36 46.5173C424.797 44.4017 425.863 42.7289 426.75 41.3362C427.655 39.9356 428.42 38.7339 428.887 37.676C429.868 35.551 429.568 34.1896 429.681 34.2037C429.695 34.2021 429.711 34.2819 429.729 34.4384C429.74 34.5964 429.789 34.8327 429.764 35.1426C429.764 35.7638 429.62 36.6933 429.165 37.7918C428.73 38.8982 427.984 40.1453 427.119 41.5631C426.264 42.9808 425.28 44.6098 424.899 46.6238C424.504 48.6174 424.616 50.9396 425.539 53.1366C426.45 55.3508 428.231 57.2787 429.911 59.4789C430.751 60.5805 431.545 61.8136 432.084 63.1985C432.623 64.574 432.938 66.1466 432.634 67.7302C432.334 69.3217 431.317 70.7347 430.061 71.7409C428.8 72.7643 427.358 73.4888 425.957 74.2462C424.552 75.0005 423.196 75.7594 422.088 76.7906C420.971 77.8078 420.054 79.0112 419.408 80.3162C418.088 82.9201 418.006 85.9496 418.975 88.4142C419.901 90.943 422.115 92.4938 423.782 94.3199C424.622 95.2385 425.343 96.2494 425.761 97.3667C426.185 98.4761 426.241 99.7139 425.864 100.762C425.129 102.872 423.243 104.174 421.51 104.338C419.731 104.507 418.342 103.623 417.541 102.776C416.711 101.905 416.394 100.986 416.274 100.384C416.168 99.764 416.238 99.4369 416.238 99.4369Z" fill="#263238"/>
<path d="M602.597 404.501H425.275C421.312 404.501 418.1 401.284 418.1 397.314V257.542C418.1 253.572 421.312 250.354 425.275 250.354H602.597C606.56 250.354 609.772 253.573 609.772 257.542V397.314C609.772 401.284 606.56 404.501 602.597 404.501Z" fill="#F5F5F5"/>
<path d="M602.597 404.501C602.594 404.464 603.2 404.517 604.32 404.24C605.412 403.963 607.104 403.228 608.41 401.378C609.046 400.463 609.535 399.262 609.643 397.887C609.694 396.507 609.646 394.965 609.652 393.315C609.641 390 609.629 386.18 609.615 381.882C609.583 364.661 609.54 339.774 609.485 309.025C609.469 293.642 609.454 276.797 609.435 258.712C609.441 257.563 609.46 256.485 609.104 255.446C608.765 254.415 608.184 253.46 607.412 252.684C606.629 251.921 605.668 251.335 604.617 251.002C603.561 250.663 602.45 250.695 601.266 250.7C596.601 250.703 591.863 250.706 587.054 250.709C577.437 250.716 567.539 250.72 557.387 250.727C516.783 250.736 472.144 250.747 425.291 250.76C422.498 250.709 419.845 252.598 418.926 255.207C418.394 256.488 418.525 257.908 418.505 259.38V263.734C418.505 269.53 418.503 275.287 418.503 281.002C418.502 292.433 418.498 303.695 418.497 314.761C418.489 336.894 418.481 358.245 418.473 378.583C418.47 383.667 418.467 388.689 418.466 393.643C418.466 394.881 418.466 396.116 418.466 397.344C418.484 398.51 418.773 399.674 419.355 400.68C420.489 402.71 422.702 404.065 424.994 404.128C434.608 404.14 443.941 404.151 452.965 404.162C471.02 404.179 487.839 404.196 503.196 404.212C533.896 404.267 558.74 404.311 575.929 404.342C584.505 404.375 591.166 404.401 595.704 404.419C597.952 404.436 599.671 404.45 600.847 404.459C602.003 404.475 602.597 404.501 602.597 404.501C602.597 404.501 602.003 404.53 600.844 404.544C599.668 404.553 597.949 404.567 595.701 404.584C591.163 404.602 584.501 404.628 575.926 404.661C558.737 404.692 533.892 404.736 503.193 404.791C487.837 404.807 471.018 404.822 452.962 404.841C443.929 404.843 434.586 404.844 424.963 404.846C422.431 404.778 419.979 403.286 418.723 401.042C418.08 399.931 417.756 398.64 417.736 397.35C417.734 396.12 417.733 394.884 417.731 393.645C417.728 388.69 417.727 383.669 417.724 378.585C417.716 358.247 417.708 336.896 417.7 314.763C417.699 303.696 417.695 292.433 417.694 281.003C417.694 275.288 417.692 269.531 417.692 263.735V259.382C417.713 257.972 417.567 256.388 418.163 254.927C419.191 252.005 422.167 249.891 425.291 249.946C472.144 249.957 516.783 249.968 557.387 249.977C567.537 249.983 577.435 249.988 587.054 249.994C591.863 249.997 596.601 250.001 601.266 250.004C602.405 250.001 603.656 249.963 604.822 250.342C605.979 250.709 607.037 251.356 607.895 252.198C608.743 253.052 609.38 254.102 609.752 255.238C610.143 256.374 610.119 257.61 610.11 258.712C610.093 276.797 610.075 293.642 610.06 309.025C610.005 339.774 609.961 364.662 609.93 381.882C609.916 386.18 609.904 390 609.893 393.315C609.874 394.973 609.91 396.491 609.844 397.903C609.721 399.316 609.205 400.542 608.545 401.47C607.185 403.347 605.451 404.065 604.34 404.318C603.2 404.575 602.597 404.501 602.597 404.501Z" fill="#263238"/>
<path d="M427.38 262.421L426.829 393.928L601.504 394.663L602.055 263.156L427.38 262.421Z" fill="#455A64"/>
<g opacity="0.2">
<path d="M426.811 393.926L488.161 312.439L525.739 363.739L551.486 336.506L601.485 394.657L426.811 393.926Z" fill="black"/>
</g>
<g opacity="0.2">
<path d="M542.036 302.65C542.005 310.258 535.822 316.4 528.226 316.368C520.63 316.336 514.499 310.144 514.53 302.535C514.561 294.926 520.745 288.785 528.34 288.816C535.937 288.848 542.068 295.041 542.036 302.65Z" fill="black"/>
</g>
<path d="M428.997 135.597C428.997 135.597 428.039 133.671 433.495 127.54C438.95 121.41 476.628 107.446 476.628 107.446C476.628 107.446 491.281 125.193 504.897 113.006C514.81 104.133 516.364 93.3857 516.364 93.3857C516.364 93.3857 549.624 91.5173 550.329 93.7002L559.232 135.585L543.608 135.675L428.997 135.597Z" fill="#FF725E"/>
<path d="M508.27 231.421L566.173 173.496L558.792 141.813L589.94 132.635C589.94 132.635 599.165 176.877 597.931 184.667C595.543 199.744 524.489 242.826 524.489 242.826L508.27 231.421Z" fill="#AE7461"/>
<path d="M548.721 93.0727C548.721 93.0727 562.685 93.8989 574.027 105.598C586.026 117.977 600.383 150.432 600.383 150.432L559.71 160.361L548.721 93.0727Z" fill="#FF725E"/>
<path d="M500.877 237.751L484.624 247.913C484.624 247.913 476.43 261.571 475.266 264.995C474.102 268.419 472.962 276.993 472.962 276.993C472.962 276.993 476.502 280.232 477.947 275.237L479.61 271.409L478.208 280.299C478.208 280.299 481.796 283.084 483.555 278.352C485.314 273.62 486.08 269.125 486.08 269.125L491.635 261.479L486.034 279.762C486.034 279.762 484.971 283.443 488.243 283.119C489.537 282.991 492.432 276.554 492.432 276.554C492.432 276.554 494.803 279.643 496.783 276.861C498.792 274.037 506.459 263.172 506.459 263.172C506.459 263.172 516.829 250.334 516.865 249.994C516.873 249.926 524.491 242.827 524.491 242.827L508.271 231.421L501.251 237.397C501.151 237.538 501.024 237.66 500.877 237.751Z" fill="#AE7461"/>
<path d="M478.259 279.978C478.283 279.983 478.367 279.617 478.498 278.95C478.634 278.224 478.812 277.273 479.026 276.126C479.24 274.911 479.49 273.493 479.765 271.93C479.901 271.138 480.043 270.309 480.19 269.45C480.351 268.607 480.645 267.76 480.993 266.912C482.438 263.525 484.338 260.739 485.714 258.757C486.409 257.767 487 256.984 487.405 256.44C487.815 255.902 488.033 255.595 488.015 255.581C487.997 255.565 487.744 255.842 487.3 256.357C486.862 256.877 486.241 257.639 485.517 258.615C484.085 260.57 482.143 263.344 480.676 266.782C480.321 267.644 480.023 268.514 479.86 269.387C479.72 270.248 479.584 271.079 479.454 271.872C479.206 273.442 478.979 274.866 478.787 276.083C478.617 277.238 478.475 278.196 478.367 278.928C478.275 279.601 478.236 279.975 478.259 279.978Z" fill="#6F4439"/>
<path d="M499.981 260.826C499.96 260.815 499.828 261.005 499.604 261.361C499.381 261.717 499.065 262.238 498.681 262.885C497.912 264.183 496.869 265.99 495.722 268.013L495.716 268.023L495.711 268.034C495.664 268.148 495.616 268.27 495.564 268.392C494.655 270.628 493.849 272.661 493.282 274.138C492.999 274.877 492.774 275.476 492.627 275.894C492.479 276.312 492.408 276.546 492.43 276.556C492.452 276.565 492.565 276.346 492.751 275.944C492.937 275.542 493.194 274.957 493.507 274.229C494.132 272.775 494.974 270.758 495.883 268.522C495.933 268.398 495.983 268.276 496.03 268.162L496.02 268.182C497.164 266.158 498.173 264.33 498.887 263.003C499.245 262.339 499.528 261.801 499.717 261.425C499.906 261.048 500.001 260.837 499.981 260.826Z" fill="#6F4439"/>
<path d="M408.816 131.676C408.891 131.841 408.959 132.01 409.022 132.183C409.305 132.962 409.458 133.785 409.514 134.611C409.541 134.99 409.484 135.411 409.569 135.782C409.625 136.032 409.794 136.236 409.89 136.47C410.511 137.963 410.369 139.73 410.317 141.306C410.261 143.083 410.283 144.969 411.209 146.485C412.135 148.002 414.293 148.901 415.752 147.889C415.53 148.998 416.397 150.144 417.489 150.429C418.583 150.713 419.778 150.258 420.584 149.466C421.392 148.674 421.857 147.593 422.135 146.496C422.057 147.823 423.363 148.962 424.691 148.981C426.018 149 427.236 148.116 427.936 146.988C428.637 145.859 428.9 144.515 429.055 143.194C429.208 141.874 429.512 139.4 429.858 138.116C429.858 138.116 431.523 138.384 432.282 138.458C433.312 138.556 432.504 138.48 432.504 138.48C433.063 137.932 433.484 136.973 434.098 135.708C435.16 133.519 435.969 132.131 436.781 130.145C437.389 128.657 437.784 127.17 436.866 126.202C434.654 123.87 430.329 128.612 430.329 128.612C429.719 126.961 424.691 126.692 423.715 128.892C423.316 127.681 423.468 126.978 422.488 126.164C421.509 125.351 420.154 124.93 418.926 125.266C417.699 125.602 416.696 126.789 416.764 128.062C415.73 126.393 413.588 125.496 411.676 125.933C410.526 126.196 409.509 126.929 408.838 127.895C408.5 128.38 408.259 128.918 408.111 129.491C408.058 129.695 407.969 129.936 407.992 130.15C408.005 130.255 408.047 130.347 408.095 130.439C408.325 130.86 408.617 131.234 408.816 131.676Z" fill="#AE7461"/>
<path d="M403.509 128.726C402.415 128.687 401.223 128.914 400.492 129.731C399.626 130.699 399.452 132.622 399.55 133.92C401.067 134.206 401.851 134.264 403.37 134.55C403.688 134.611 403.957 134.53 404.221 134.719C404.921 135.217 404.807 136.893 405.088 137.705C405.577 139.113 407.378 139.802 408.773 139.284C410.169 138.766 411.068 137.279 411.139 135.79C411.209 134.3 410.554 132.845 409.597 131.702C408.102 129.918 405.833 128.809 403.509 128.726Z" fill="#AE7461"/>
<path d="M416.491 127.702C416.775 127.717 416.774 132.264 416.488 137.858C416.202 143.454 415.741 147.978 415.457 147.962C415.172 147.948 415.174 143.401 415.46 137.805C415.746 132.211 416.207 127.687 416.491 127.702Z" fill="#6F4439"/>
<path d="M423.76 128.698C424.032 128.685 424.402 132.826 423.957 137.916C423.527 143.01 422.456 147.025 422.19 146.966C421.899 146.908 422.507 142.852 422.932 137.827C423.37 132.807 423.463 128.706 423.76 128.698Z" fill="#6F4439"/>
<path d="M430.573 128.698C430.862 128.698 430.984 132.14 430.45 136.312C429.918 140.478 429.278 143.8 429.009 143.777C428.712 143.748 428.898 140.334 429.426 136.19C429.958 132.051 430.293 128.696 430.573 128.698Z" fill="#6F4439"/>
<path d="M405.696 129.58C405.688 129.458 406.424 129.294 407.472 129.774C408.509 130.223 409.697 131.439 410.261 133.042C410.818 134.66 411 136.052 410.954 137.225C410.829 138.484 409.917 138.849 409.897 138.686C409.817 138.572 410.311 138.137 410.226 137.201C410.103 136.293 409.792 134.797 409.298 133.405C408.789 131.982 407.911 130.953 407.111 130.405C406.322 129.853 405.682 129.738 405.696 129.58Z" fill="#6F4439"/>
</svg>
