<svg width="249" height="140" viewBox="0 0 249 140" fill="none" xmlns="http://www.w3.org/2000/svg">
<path d="M234.403 138.627H13.9382C6.47532 138.627 0.424744 132.566 0.424744 125.091V14.3446C0.424744 6.86936 6.47532 0.808716 13.9382 0.808716H234.403C241.866 0.808716 247.916 6.86936 247.916 14.3446V125.091C247.916 132.566 241.867 138.627 234.403 138.627Z" fill="white"/>
<path d="M234.403 138.627C234.4 138.588 235.06 138.621 236.317 138.433C237.563 138.253 239.452 137.794 241.549 136.467C243.622 135.166 245.91 132.854 247.073 129.408C247.682 127.693 247.843 125.748 247.776 123.647C247.769 121.548 247.763 119.314 247.757 116.948C247.726 98.0023 247.682 70.6145 247.627 36.7765C247.623 32.5452 247.618 28.2137 247.613 23.7852C247.612 21.571 247.608 19.3317 247.607 17.0705C247.602 14.7968 247.704 12.5278 246.991 10.3699C245.645 6.06505 241.9 2.44871 237.291 1.46599C236.143 1.21405 234.987 1.12641 233.776 1.14049C232.567 1.14206 231.352 1.14208 230.132 1.14364C227.691 1.14521 225.229 1.14677 222.745 1.1499C202.877 1.16242 181.647 1.17492 159.309 1.18744C114.628 1.19682 65.5096 1.20777 13.9522 1.22029C10.8199 1.22655 7.72669 2.37829 5.3755 4.4204C3.00401 6.43904 1.42614 9.33867 0.988709 12.3979C0.757496 13.9111 0.844963 15.512 0.827778 17.1034C0.827778 18.6917 0.827778 20.2784 0.827778 21.862C0.827778 25.0293 0.827791 28.1855 0.826229 31.3293C0.824667 43.9074 0.821545 56.301 0.819983 68.4785C0.816859 80.6561 0.813716 92.6176 0.810591 104.334C0.809029 110.191 0.805908 115.987 0.804345 121.717C0.824655 123.138 0.75904 124.604 0.848088 125.977C0.954321 127.352 1.21679 128.726 1.75265 129.997C2.77748 132.552 4.60686 134.754 6.90805 136.203C9.20143 137.679 11.9119 138.361 14.6287 138.261C17.3861 138.262 20.1262 138.264 22.8477 138.265C28.2906 138.269 33.66 138.272 38.9513 138.275C49.5356 138.281 59.8105 138.289 69.7448 138.295C89.6135 138.312 108.121 138.33 125.019 138.345C158.801 138.4 186.142 138.444 205.053 138.475C214.49 138.508 221.822 138.535 226.812 138.552C229.288 138.569 231.18 138.583 232.47 138.593C233.75 138.599 234.403 138.627 234.403 138.627C234.403 138.627 233.75 138.655 232.475 138.669C231.185 138.679 229.293 138.691 226.816 138.71C221.827 138.727 214.495 138.754 205.057 138.787C186.145 138.816 158.806 138.862 125.023 138.916C108.126 138.932 89.6182 138.948 69.7495 138.966C59.8152 138.973 49.5387 138.981 38.956 138.987C33.6647 138.99 28.2937 138.993 22.8524 138.996C20.1309 138.998 17.3908 138.999 14.6334 139.001C11.8448 139.109 8.91867 138.391 6.51124 136.834C4.07882 135.305 2.14165 132.979 1.05588 130.277C0.488788 128.933 0.206001 127.479 0.0935193 126.025C-0.000215622 124.553 0.0669758 123.159 0.0451043 121.716C0.043542 115.985 0.040421 110.189 0.0388587 104.332C0.0357342 92.6176 0.032591 80.6545 0.0294665 68.4769C0.0279043 56.2994 0.0247832 43.9059 0.023221 31.3278C0.023221 28.184 0.0232338 25.0277 0.0216715 21.8605C0.0216715 20.2769 0.0216715 18.6901 0.0216715 17.1018C0.0404185 15.5213 -0.0548888 13.9205 0.191947 12.2759C0.655935 9.02569 2.33381 5.94613 4.85059 3.80231C7.34394 1.63345 10.6371 0.408137 13.9585 0.403442C65.5158 0.414396 114.635 0.425392 159.315 0.436346C181.653 0.448864 202.881 0.461362 222.752 0.473881C225.235 0.475446 227.698 0.477007 230.138 0.480137C231.358 0.481702 232.573 0.481724 233.783 0.483289C234.99 0.469205 236.248 0.563072 237.44 0.830658C242.277 1.87284 246.193 5.66911 247.596 10.1837C248.341 12.4542 248.227 14.8422 248.229 17.0737C248.227 19.3364 248.224 21.5741 248.222 23.7883C248.218 28.2168 248.213 32.5499 248.208 36.7796C248.154 70.6176 248.11 98.0054 248.079 116.951C248.072 119.317 248.066 121.551 248.06 123.65C248.116 125.737 247.938 127.761 247.305 129.49C246.096 132.99 243.751 135.316 241.641 136.61C239.504 137.932 237.591 138.364 236.332 138.519C235.701 138.633 235.214 138.605 234.892 138.627C234.567 138.632 234.403 138.627 234.403 138.627Z" fill="#263238"/>
<path d="M63.5911 24.0935H26.8283V31.0383H63.5911V24.0935Z" fill="#6B07ED"/>
<path d="M63.5911 109.205H26.8283V116.15H63.5911V109.205Z" fill="#6B07ED"/>
<path d="M90.1213 41.3145H26.8283V48.2592H90.1213V41.3145Z" fill="#E0E0E0"/>
<path d="M129.307 41.3145H101.333V48.2592H129.307V41.3145Z" fill="#6B07ED"/>
<path d="M212.662 41.3145H194.27V48.2592H212.662V41.3145Z" fill="#263238"/>
<path d="M187.852 41.3145H139.142V48.2592H187.852V41.3145Z" fill="#455A64"/>
<path d="M149.37 64.6837L212.663 64.6837V57.7389L149.37 57.7389V64.6837Z" fill="#E0E0E0"/>
<path d="M110.184 64.6837H138.158V57.7389H110.184V64.6837Z" fill="#455A64"/>
<path d="M26.8304 64.6837H45.2227V57.7389H26.8304V64.6837Z" fill="#263238"/>
<path d="M51.6411 64.6837H100.352V57.7389L51.6411 57.7389V64.6837Z" fill="#6B07ED"/>
<path d="M90.1213 74.6047H26.8283V81.5495H90.1213V74.6047Z" fill="#E0E0E0"/>
<path d="M129.307 74.6047H101.333V81.5495H129.307V74.6047Z" fill="#263238"/>
<path d="M212.662 74.6047H194.27V81.5495H212.662V74.6047Z" fill="#263238"/>
<path d="M105.35 91.7914H86.9562V98.7361H105.35V91.7914Z" fill="#6B07ED"/>
<path d="M187.852 74.6047H139.142V81.5495H187.852V74.6047Z" fill="#455A64"/>
<path d="M74.2113 91.7914H25.5004V98.7361H74.2113V91.7914Z" fill="#455A64"/>
</svg>
