<svg width="195" height="195" viewBox="0 0 195 195" fill="none" xmlns="http://www.w3.org/2000/svg">
<path d="M180.694 193.861H13.6427C6.45328 193.861 0.626038 188.024 0.626038 180.822V13.496C0.626038 6.29466 6.45328 0.457825 13.6427 0.457825H180.693C187.882 0.457825 193.709 6.29466 193.709 13.496V180.822C193.709 188.024 187.882 193.861 180.694 193.861Z" fill="white"/>
<path d="M180.694 193.861C180.691 193.82 181.355 193.861 182.616 193.66C183.867 193.468 185.754 192.984 187.84 191.618C189.864 190.236 192.12 187.859 193.095 184.331C193.622 182.583 193.592 180.613 193.57 178.505C193.564 176.399 193.558 174.155 193.551 171.779C193.52 152.757 193.476 125.258 193.422 91.284C193.406 74.2899 193.39 55.6778 193.372 35.6979C193.368 30.703 193.365 25.622 193.361 20.4596C193.34 17.8885 193.4 15.2534 193.314 12.6792C193.173 10.1317 192.192 7.62948 190.588 5.60459C188.977 3.57969 186.727 2.04929 184.204 1.32947C181.697 0.565826 178.946 0.903831 176.213 0.828719C170.749 0.831848 165.212 0.833409 159.604 0.836539C114.744 0.845928 65.425 0.856887 13.6599 0.869406C10.5166 0.867841 7.41398 2.08058 5.12528 4.20406C2.8194 6.30877 1.35716 9.28352 1.08846 12.3756C0.974413 18.7038 1.05567 25.1181 1.03067 31.4165C1.02911 44.0448 1.02594 56.4883 1.02438 68.716C1.01657 93.1696 1.00883 116.758 1.00102 139.227C0.99477 150.463 0.990009 161.418 0.98376 172.062C0.982198 174.724 0.98065 177.366 0.979088 179.987C0.886915 182.578 1.44313 185.119 2.75073 187.282C3.37407 188.373 4.18481 189.346 5.10497 190.183C6.01264 191.034 7.05312 191.739 8.17169 192.261C10.4073 193.413 12.8709 193.593 15.3721 193.524C35.3205 193.543 53.9034 193.559 70.8694 193.574C104.789 193.629 132.239 193.673 151.228 193.704C160.705 193.737 168.066 193.764 173.076 193.781C175.564 193.798 177.462 193.812 178.758 193.821C180.038 193.832 180.694 193.861 180.694 193.861C180.694 193.861 180.038 193.889 178.758 193.903C177.462 193.912 175.564 193.925 173.076 193.943C168.066 193.961 160.705 193.987 151.228 194.02C132.239 194.051 104.789 194.095 70.8694 194.15C53.9034 194.166 35.3205 194.181 15.3721 194.2C12.9225 194.277 10.1932 194.091 7.87486 192.881C6.69536 192.33 5.59869 191.59 4.63946 190.693C3.66931 189.812 2.81319 188.786 2.15392 187.637C0.771331 185.378 0.177672 182.627 0.274531 179.987C0.272969 177.366 0.271421 174.723 0.269859 172.062C0.26361 161.418 0.258945 150.461 0.252696 139.227C0.244884 116.756 0.23705 93.1696 0.229239 68.716C0.227677 56.4883 0.224508 44.0448 0.222946 31.4165C0.249504 25.0868 0.162094 18.7758 0.280824 12.3037C0.566716 9.01124 2.12428 5.84244 4.57701 3.60316C7.01099 1.34354 10.3197 0.0494273 13.6614 0.0525569C65.4265 0.0635108 114.745 0.0744705 159.605 0.0854243C165.212 0.088554 170.75 0.0916793 176.215 0.0932442C177.58 0.0932442 178.943 0.0948082 180.299 0.0948082C181.667 0.115151 183.086 0.207481 184.406 0.629986C187.074 1.39363 189.449 3.01479 191.149 5.15549C192.842 7.29462 193.875 9.94232 194.02 12.6323C194.104 15.2972 194.04 17.8682 194.059 20.458C194.056 25.6204 194.051 30.7014 194.048 35.6964C194.031 55.6762 194.014 74.2899 193.998 91.2824C193.943 125.258 193.9 152.755 193.868 171.778C193.862 174.153 193.856 176.397 193.85 178.503C193.858 180.595 193.876 182.619 193.328 184.395C192.309 187.983 189.994 190.377 187.93 191.753C185.803 193.114 183.89 193.574 182.628 193.742C181.994 193.854 181.506 193.839 181.183 193.856C180.856 193.867 180.694 193.861 180.694 193.861Z" fill="#263238"/>
<path d="M106.209 95.3228H85.9842C76.1561 95.3228 68.1887 87.3422 68.1887 77.4978V33.8232H124.005V77.4978C124.005 87.3422 116.037 95.3228 106.209 95.3228Z" fill="#E0E0E0"/>
<path d="M106.209 95.3228C106.195 95.1929 108.104 95.351 111.376 94.3683C112.983 93.8206 114.916 92.949 116.842 91.4405C118.765 89.9507 120.682 87.8069 121.977 84.9699C123.402 82.1453 123.756 78.7184 123.603 74.9174C123.584 71.1211 123.566 67.04 123.545 62.7023C123.52 54.0049 123.491 44.2904 123.461 33.8232L124.006 34.3694C112.268 34.3803 99.4117 34.3928 85.992 34.4054C79.8946 34.4022 73.9127 34.4007 68.1918 34.3975L68.7651 33.8232C68.7402 46.8646 68.7183 59.1297 68.6964 70.2057C68.7058 72.9613 68.6401 75.6842 68.7089 78.2505C68.8057 80.7871 69.4588 83.2141 70.5212 85.3361C72.6442 89.6143 76.3514 92.5578 80.118 93.9051C83.9017 95.3698 87.6839 94.9019 90.9147 95.0239C94.1282 95.0599 96.9012 95.0897 99.2009 95.1163C101.396 95.1585 103.13 95.1914 104.406 95.2164C104.945 95.2368 105.387 95.254 105.755 95.2681C106.054 95.2868 106.209 95.304 106.209 95.3228C106.209 95.3416 106.054 95.3588 105.751 95.376C105.386 95.3901 104.942 95.4073 104.403 95.4277C103.127 95.4527 101.393 95.4856 99.1977 95.5278C96.8981 95.5528 94.1252 95.5841 90.9116 95.6201C89.2853 95.6295 87.5496 95.6389 85.7077 95.6483C83.8283 95.6499 81.8396 95.3025 79.8602 94.6202C75.9109 93.2619 71.9927 90.2246 69.7181 85.7445C68.5808 83.5224 67.8715 80.9686 67.7496 78.2927C67.6606 75.645 67.709 72.9817 67.684 70.2072C67.6637 59.1297 67.6403 46.8661 67.6153 33.8248L67.6138 33.2505H68.1886C73.9112 33.2474 79.8915 33.2458 85.989 33.2427C99.4103 33.2552 112.264 33.2677 124.003 33.2787H124.55L124.548 33.8248C124.517 44.292 124.489 54.0065 124.464 62.7038C124.444 67.04 124.423 71.1227 124.406 74.9189C124.526 78.6652 124.105 82.3988 122.581 85.2594C121.191 88.184 119.17 90.3639 117.157 91.8567C115.142 93.3668 113.136 94.2087 111.48 94.7125C108.107 95.6029 106.209 95.3228 106.209 95.3228Z" fill="#263238"/>
<path d="M68.473 34.2458C76.5982 40.1687 84.9672 44.0698 95.014 43.8648C105.061 43.6598 116.128 40.43 124.005 34.1785L68.473 34.2458Z" fill="#6B07ED"/>
<path d="M124.005 42.7866C124.044 42.7772 124.183 43.1919 124.412 43.9884C124.664 44.9132 124.976 46.0712 125.361 47.4889C126.175 50.6984 127.285 55.0768 128.638 60.416C129.318 63.1639 130.057 66.1543 130.847 69.3559C131.222 70.9896 131.696 72.5654 132.022 74.3978C132.316 76.2303 132.043 78.1988 131.279 79.9999C130.532 81.8167 129.18 83.4097 127.498 84.5818C125.795 85.721 123.688 86.3751 121.572 86.3673C117.525 86.3892 113.339 86.4126 109.051 86.4361C106.906 86.4455 104.786 86.4533 102.696 86.4627C100.637 86.4674 98.4979 86.5503 96.4389 86.0887C92.3301 85.2625 88.751 82.9528 86.328 79.9906C85.1063 78.5118 84.1596 76.8734 83.4957 75.1865C82.8505 73.5043 82.3317 71.9004 81.7725 70.334C80.6914 67.2184 79.6822 64.3078 78.7542 61.635C76.981 56.421 75.5266 52.1459 74.4611 49.0115C74.0112 47.6141 73.6426 46.4718 73.3489 45.5595C73.1067 44.7661 72.9989 44.342 73.0364 44.3295C73.0739 44.3154 73.2566 44.7129 73.5707 45.4812C73.919 46.3732 74.3549 47.4921 74.8877 48.8597C76.0406 51.9628 77.6122 56.1957 79.5291 61.3596C80.4977 64.0183 81.5522 66.9132 82.6817 70.0116C83.8581 73.1178 84.7376 76.5761 87.1513 79.3052C89.4509 82.0718 92.8192 84.2156 96.6686 84.973C98.5761 85.3971 100.59 85.3157 102.699 85.3063C104.788 85.2953 106.906 85.2844 109.049 85.275C113.335 85.2594 117.52 85.2437 121.565 85.2296C123.497 85.2421 125.344 84.6694 126.882 83.6617C128.39 82.621 129.619 81.2033 130.299 79.5759C130.996 77.9625 131.263 76.2005 131.011 74.5434C130.74 72.9003 130.258 71.179 129.912 69.5844C129.17 66.3718 128.477 63.3689 127.842 60.6116C126.636 55.2364 125.648 50.8299 124.922 47.5985C124.623 46.1604 124.38 44.9852 124.186 44.0463C124.03 43.2294 123.966 42.796 124.005 42.7866Z" fill="#263238"/>
<path d="M76.5779 45.2059C76.5779 46.9115 75.1969 48.2949 73.494 48.2949C71.7912 48.2949 70.4102 46.9115 70.4102 45.2059C70.4102 43.5002 71.7912 42.1169 73.494 42.1169C75.1969 42.1184 76.5779 43.5002 76.5779 45.2059Z" fill="#263238"/>
<path d="M123.422 34.3819C123.713 35.6979 121.936 36.9404 121.958 38.2877C121.999 40.8181 120.441 43.1637 118.07 44.0369C117.881 44.1058 117.704 44.2028 117.546 44.328C116.428 45.2152 116.145 46.7691 115.937 48.1837C115.595 50.5232 115.253 52.8626 114.912 55.202C114.7 56.6558 114.475 58.147 113.75 59.424C113.025 60.7009 111.674 61.7305 110.212 61.6366C108.099 61.5021 106.786 59.2127 106.467 57.1174C106.067 54.4916 106.576 51.678 104.786 49.4027C103.95 48.3418 102.555 47.7722 101.288 48.2354C98.0823 49.409 100.037 54.5057 97.009 55.6809C96.1622 56.0095 95.1906 55.8233 94.4438 55.3053C92.8612 54.2099 92.3847 52.3759 91.952 50.6296C91.2708 47.8817 90.5897 45.1339 89.9086 42.386L123.422 34.3819Z" fill="#6B07ED"/>
<path d="M43.7019 151.673C53.2316 151.673 60.957 143.934 60.957 134.389C60.957 124.844 53.2316 117.105 43.7019 117.105C34.1722 117.105 26.4469 124.844 26.4469 134.389C26.4469 143.934 34.1722 151.673 43.7019 151.673Z" fill="#6B07ED"/>
<path d="M97.1699 151.673C106.7 151.673 114.425 143.934 114.425 134.389C114.425 124.844 106.7 117.105 97.1699 117.105C87.6402 117.105 79.9149 124.844 79.9149 134.389C79.9149 143.934 87.6402 151.673 97.1699 151.673Z" fill="#6B07ED"/>
<path d="M150.636 151.673C160.166 151.673 167.891 143.934 167.891 134.389C167.891 124.844 160.166 117.105 150.636 117.105C141.107 117.105 133.381 124.844 133.381 134.389C133.381 143.934 141.107 151.673 150.636 151.673Z" fill="#6B07ED"/>
<g opacity="0.2">
<path d="M150.636 151.673C160.166 151.673 167.891 143.934 167.891 134.389C167.891 124.844 160.166 117.105 150.636 117.105C141.107 117.105 133.381 124.844 133.381 134.389C133.381 143.934 141.107 151.673 150.636 151.673Z" fill="black"/>
</g>
<path d="M60.9585 134.389C60.8461 134.397 60.9398 132.848 60.2571 130.209C59.5822 127.621 57.8466 123.823 53.9597 120.891C52.0334 119.459 49.6119 118.245 46.8217 117.759C44.0519 117.293 40.9274 117.387 37.9591 118.526C36.4641 119.049 35.0237 119.838 33.7004 120.833C32.3616 121.808 31.1461 123.019 30.1447 124.421C28.0748 127.183 26.9093 130.73 26.8749 134.386C26.9077 138.043 28.0732 141.592 30.1432 144.355C31.1446 145.757 32.3601 146.969 33.6989 147.944C35.0221 148.939 36.4641 149.727 37.9591 150.252C40.929 151.389 44.0519 151.485 46.8234 151.018C49.6135 150.533 52.035 149.319 53.9612 147.887C57.8481 144.955 59.5838 141.157 60.2587 138.569C60.9398 135.929 60.8445 134.38 60.9585 134.389C60.9585 134.389 61.1741 135.933 60.5805 138.648C59.9915 141.309 58.3043 145.266 54.3268 148.368C52.3568 149.882 49.8541 151.18 46.953 151.715C44.0722 152.233 40.8087 152.162 37.6904 150.992C36.1219 150.454 34.6065 149.637 33.213 148.601C31.8038 147.584 30.5244 146.319 29.4683 144.851C27.2874 141.96 26.0516 138.226 26.0204 134.386C26.0532 130.546 27.2889 126.815 29.4698 123.923C30.5259 122.455 31.8055 121.191 33.2146 120.176C34.6081 119.14 36.1219 118.323 37.692 117.784C40.8102 116.616 44.0722 116.544 46.953 117.061C49.8541 117.598 52.3568 118.894 54.3268 120.409C58.3043 123.51 59.9915 127.466 60.5805 130.128C61.1741 132.844 60.9585 134.389 60.9585 134.389Z" fill="#263238"/>
<path d="M114.425 134.389C114.312 134.397 114.406 132.848 113.724 130.209C113.049 127.621 111.313 123.823 107.426 120.891C105.5 119.459 103.078 118.245 100.288 117.759C97.5183 117.293 94.3938 117.387 91.4256 118.526C89.9305 119.049 88.4901 119.838 87.1669 120.833C85.828 121.808 84.6126 123.019 83.6112 124.421C81.5412 127.183 80.3757 130.73 80.3414 134.386C80.3742 138.043 81.5397 141.592 83.6097 144.355C84.6111 145.757 85.8265 146.969 87.1653 147.944C88.4886 148.939 89.9305 149.727 91.4256 150.252C94.3954 151.389 97.5184 151.485 100.29 151.018C103.08 150.533 105.501 149.319 107.428 147.887C111.315 144.955 113.05 141.157 113.724 138.569C114.406 135.929 114.311 134.38 114.425 134.389C114.425 134.389 114.641 135.933 114.047 138.648C113.458 141.309 111.771 145.266 107.793 148.368C105.823 149.882 103.321 151.18 100.419 151.715C97.5387 152.233 94.2751 152.162 91.1569 150.992C89.5884 150.454 88.0729 149.637 86.6794 148.601C85.2718 147.584 83.9908 146.319 82.9347 144.851C80.7538 141.96 79.5181 138.226 79.4868 134.386C79.5196 130.546 80.7554 126.815 82.9363 123.923C83.9924 122.455 85.2719 121.191 86.681 120.176C88.073 119.14 89.5884 118.323 91.1569 117.784C94.2751 116.616 97.5371 116.544 100.419 117.061C103.321 117.598 105.823 118.894 107.793 120.409C111.771 123.51 113.458 127.466 114.047 130.128C114.641 132.844 114.425 134.389 114.425 134.389Z" fill="#263238"/>
<path d="M167.862 134.389C167.749 134.397 167.843 132.848 167.16 130.209C166.485 127.621 164.75 123.823 160.863 120.891C158.937 119.459 156.515 118.245 153.725 117.759C150.955 117.293 147.831 117.387 144.862 118.526C143.367 119.049 141.927 119.838 140.604 120.833C139.265 121.808 138.049 123.019 137.048 124.421C134.978 127.183 133.812 130.73 133.778 134.386C133.811 138.043 134.976 141.592 137.046 144.355C138.048 145.757 139.263 146.969 140.602 147.944C141.925 148.939 143.367 149.727 144.862 150.252C147.832 151.389 150.955 151.485 153.726 151.018C156.517 150.533 158.938 149.319 160.864 147.887C164.751 144.955 166.487 141.157 167.16 138.569C167.843 135.929 167.749 134.38 167.862 134.389C167.862 134.389 168.077 135.933 167.484 138.648C166.895 141.309 165.207 145.266 161.23 148.368C159.26 149.882 156.757 151.18 153.856 151.715C150.975 152.233 147.712 152.162 144.594 150.992C143.025 150.454 141.51 149.637 140.116 148.601C138.707 147.584 137.428 146.319 136.372 144.851C134.191 141.96 132.955 138.226 132.924 134.386C132.956 130.546 134.192 126.815 136.373 123.923C137.429 122.455 138.709 121.191 140.118 120.176C141.511 119.14 143.025 118.323 144.594 117.784C147.712 116.616 150.974 116.544 153.855 117.061C156.756 117.598 159.258 118.894 161.228 120.409C165.206 123.51 166.893 127.466 167.482 130.128C168.077 132.844 167.862 134.389 167.862 134.389Z" fill="#263238"/>
</svg>
