<svg width="35" height="39" viewBox="0 0 35 39" fill="none" xmlns="http://www.w3.org/2000/svg">
<path d="M4.375 2H30.625C33.0391 2 35 3.96094 35 6.375V32.625C35 35.0391 33.0391 37 30.625 37H4.375C1.96094 37 0 35.0391 0 32.625V6.375C0 3.96094 1.96094 2 4.375 2ZM21.1641 20.9219C21.6797 16.7891 23.1875 15.4922 25.1797 15.4922C27.1562 15.4922 28.6875 17.0703 28.6875 19.375C28.6875 21.6797 27.1484 23.2578 25.1797 23.2578C23 23.2578 21.5625 21.5781 21.1641 20.9219ZM19.0781 17.6562C18.4375 16.4453 17.9609 14.8203 17.5781 13.3125H12.6641V19.4141C12.6641 21.6328 11.6562 23.2734 9.67969 23.2734C7.70312 23.2734 6.57031 21.6406 6.57031 19.4219L6.59375 13.3203H3.76562V19.4219C3.76562 21.2031 4.34375 22.8203 5.39844 23.9688C6.48438 25.1562 7.96094 25.7812 9.67969 25.7812C13.0938 25.7812 15.4766 23.1641 15.4766 19.4141V15.3125C15.8359 16.6641 16.6797 19.2578 18.3047 21.5391L16.7969 30.1719H19.6719L20.6719 24.0469C21 24.3203 21.3516 24.5625 21.7188 24.7812C22.6797 25.3906 23.7812 25.7344 24.9141 25.7656H25.1797C28.7031 25.7656 31.5 23.0391 31.5 19.3672C31.5 15.6953 28.6953 12.9453 25.1797 12.9453C21.6328 12.9453 19.6406 15.2656 19.0781 17.6406V17.6562Z" fill="black"/>
</svg>
