<svg width="36" height="36" viewBox="0 0 36 36" fill="none" xmlns="http://www.w3.org/2000/svg">
<g clip-path="url(#clip0_1_1734)">
<path d="M12.8262 24.4271C12.8869 24.3359 12.8642 24.2372 12.7578 24.1309C12.6211 24.0245 12.5148 24.0093 12.4388 24.0853C12.378 24.1764 12.4008 24.2752 12.5072 24.3815C12.6439 24.4878 12.7502 24.503 12.8262 24.4271ZM12.1882 23.4928C12.1122 23.3865 12.0211 23.3561 11.9147 23.4017C11.8236 23.4625 11.8236 23.5536 11.9147 23.6751C12.0211 23.7967 12.1122 23.8346 12.1882 23.7891C12.2793 23.7283 12.2793 23.6296 12.1882 23.4928ZM11.2539 22.5814C11.2843 22.5206 11.2463 22.4599 11.14 22.3991C11.0336 22.3687 10.9729 22.3839 10.9577 22.4447C10.9121 22.5206 10.9425 22.5814 11.0488 22.627C11.1704 22.6573 11.2387 22.6421 11.2539 22.5814ZM11.7324 23.1055C11.7628 23.0903 11.7742 23.0561 11.7666 23.0029C11.759 22.9498 11.7324 22.908 11.6869 22.8776C11.5957 22.7713 11.5197 22.7485 11.459 22.8092C11.3982 22.87 11.4058 22.9536 11.4818 23.0599C11.5729 23.151 11.6565 23.1662 11.7324 23.1055ZM13.6921 24.8145C13.7224 24.7081 13.6541 24.6246 13.487 24.5638C13.3503 24.5182 13.2515 24.5486 13.1908 24.6549C13.1604 24.7613 13.2287 24.8448 13.3958 24.9056C13.5326 24.9512 13.6313 24.9208 13.6921 24.8145ZM14.6491 24.8828C14.6491 24.7613 14.5579 24.7005 14.3757 24.7005C14.2237 24.7005 14.1478 24.7613 14.1478 24.8828C14.1478 25.0043 14.2313 25.0651 14.3984 25.0651C14.5655 25.0651 14.6491 25.0043 14.6491 24.8828ZM15.5378 24.7233C15.5074 24.617 15.4086 24.579 15.2415 24.6094C15.0744 24.6398 15.0061 24.7081 15.0365 24.8145C15.0668 24.936 15.158 24.9816 15.3099 24.9512C15.4618 24.9208 15.5378 24.8448 15.5378 24.7233ZM30.1667 17.5C30.1667 14.2795 29.0273 11.53 26.7487 9.2513C24.4701 6.97266 21.7205 5.83333 18.5 5.83333C15.2795 5.83333 12.5299 6.97266 10.2513 9.2513C7.97266 11.53 6.83333 14.2795 6.83333 17.5C6.83333 20.0369 7.57769 22.3193 9.06641 24.3473C10.5551 26.3753 12.4692 27.7843 14.8086 28.5742C15.082 28.6198 15.2833 28.5818 15.4124 28.4603C15.5416 28.3388 15.6061 28.1868 15.6061 28.0046C15.6061 27.2146 15.5985 26.4931 15.5833 25.8398C15.4922 25.855 15.3745 25.874 15.2301 25.8968C15.0858 25.9196 14.8162 25.9348 14.4212 25.9424C14.0263 25.95 13.6617 25.9196 13.3275 25.8512C12.9933 25.7829 12.6629 25.631 12.3363 25.3955C12.0097 25.16 11.7856 24.8448 11.6641 24.4499C11.3147 23.5536 10.8817 22.9915 10.3652 22.7637C10.3349 22.7485 10.3007 22.7219 10.2627 22.6839L10.0804 22.5016L9.9209 22.2852L10.012 22.1143L10.4564 22.0345C10.5475 22.0345 10.6615 22.0497 10.7982 22.0801C10.9349 22.1105 11.1628 22.2282 11.4818 22.4333C11.8008 22.6383 12.0514 22.908 12.2337 23.2422C12.4768 23.6675 12.7616 23.9865 13.0882 24.1992C13.4148 24.4119 13.7452 24.5182 14.0794 24.5182C14.4136 24.5182 14.7023 24.4916 14.9453 24.4385C15.1884 24.3853 15.4162 24.3132 15.6289 24.222C15.7352 23.508 15.9859 22.9839 16.3809 22.6497C15.6365 22.5586 14.9833 22.4181 14.4212 22.2282C13.8592 22.0383 13.3047 21.7421 12.7578 21.3395C12.2109 20.937 11.7894 20.3597 11.4932 19.6077C11.1969 18.8558 11.0488 17.9481 11.0488 16.8848C11.0488 15.6847 11.4514 14.6441 12.2565 13.763C11.8919 12.8212 11.9299 11.7882 12.3704 10.6641C12.6591 10.5729 13.073 10.6299 13.6123 10.835C14.1516 11.04 14.6111 11.2641 14.9909 11.5072L15.5833 11.8717C16.4644 11.6135 17.4366 11.4844 18.5 11.4844C19.5634 11.4844 20.5356 11.6135 21.4167 11.8717C21.5838 11.7654 21.8002 11.6287 22.0661 11.4616C22.3319 11.2945 22.7535 11.097 23.3307 10.8691C23.908 10.6413 24.3409 10.5729 24.6296 10.6641C25.0701 11.7882 25.1081 12.8212 24.7435 13.763C25.5486 14.6441 25.9512 15.6847 25.9512 16.8848C25.9512 17.7507 25.8448 18.514 25.6322 19.1748C25.4195 19.8356 25.1498 20.3673 24.8232 20.7699C24.4966 21.1724 24.0903 21.5104 23.6042 21.7839C23.1181 22.0573 22.6433 22.2548 22.18 22.3763C21.7167 22.4978 21.1964 22.589 20.6191 22.6497C21.1508 23.1207 21.4167 23.8422 21.4167 24.8145C21.4167 25.4221 21.4129 26.0981 21.4053 26.8424C21.3977 27.5868 21.3939 27.9742 21.3939 28.0046C21.3939 28.1868 21.4584 28.3388 21.5876 28.4603C21.7167 28.5818 21.918 28.6198 22.1914 28.5742C24.5308 27.7843 26.4449 26.3753 27.9336 24.3473C29.4223 22.3193 30.1667 20.0369 30.1667 17.5ZM36 4V32C36 33 35.5 33.5 35 34C34.5 34.5 34 35 32 35H5C3.19227 35 2.57454 34.5745 2 34C1.42546 33.4255 1 32.8077 1 31L1 3.99977C1 2.19204 1.50002 1.5 2 1C2.49998 0.5 3.19227 0 5 0L32 0.000256632C33.8077 0.000256632 34.5 0.5 35 1.00026C35.5 1.5 36 2.19227 36 4Z" fill="#330AD6"/>
</g>
<defs>
<clipPath id="clip0_1_1734">
<rect width="36" height="36" fill="white"/>
</clipPath>
</defs>
</svg>
