<svg width="73" height="80" viewBox="0 0 73 80" fill="none" xmlns="http://www.w3.org/2000/svg">
<path d="M36.1675 28.4081C42.5817 28.4081 47.7595 33.5858 47.7595 40C47.7595 46.4142 42.5817 51.592 36.1675 51.592C29.7533 51.592 24.5756 46.4142 24.5756 40C24.5756 33.5858 29.7533 28.4081 36.1675 28.4081Z" stroke="#6B07ED" stroke-width="2" stroke-linecap="round"/>
<path d="M48.6868 18.2456C50.2711 19.1343 51.778 20.2162 53.0918 21.4527C53.0918 21.4527 63.2154 17.2796 63.2541 17.3569L69.2819 27.7897C69.3205 27.9056 60.7038 34.5516 60.7038 34.5516C61.0902 36.2904 61.2834 38.1451 61.2834 39.9998" stroke="#6B07ED" stroke-width="2"/>
<path d="M61.2669 39.965C61.2894 41.7814 61.1059 43.6274 60.6919 45.3834C60.6919 45.3834 69.3678 52.0642 69.3202 52.1363L63.299 62.5729C63.218 62.6643 53.154 58.5251 53.154 58.5251C51.8413 59.7291 50.3317 60.8238 48.7255 61.7511" stroke="#6B07ED" stroke-width="2"/>
<path d="M48.7476 61.7189C47.1859 62.6466 45.4954 63.4107 43.7677 63.9302C43.7677 63.9302 42.3199 74.7841 42.2337 74.7789L30.1847 74.7827C30.065 74.7582 28.6177 63.9729 28.6177 63.9729C26.9187 63.4382 25.2158 62.6781 23.6096 61.7508" stroke="#6B07ED" stroke-width="2"/>
<path d="M23.6482 61.7544C22.064 60.8657 20.557 59.7838 19.2433 58.5473C19.2433 58.5473 9.11961 62.7204 9.08097 62.6431L3.05315 52.2103C3.01451 52.0944 11.6312 45.4484 11.6312 45.4484C11.2448 43.7096 11.0516 41.8549 11.0516 40.0002" stroke="#6B07ED" stroke-width="2"/>
<path d="M11.0682 40.035C11.0457 38.2186 11.2292 36.3726 11.6431 34.6166C11.6431 34.6166 2.96731 27.9358 3.01491 27.8637L9.03604 17.4271C9.11711 17.3357 19.1811 21.4749 19.1811 21.4749C20.4937 20.2709 22.0034 19.1762 23.6096 18.2489" stroke="#6B07ED" stroke-width="2"/>
<path d="M23.5875 18.2808C25.1492 17.3532 26.8397 16.5891 28.5674 16.0696C28.5674 16.0696 30.0152 5.2157 30.1014 5.22088L42.1504 5.21702C42.2701 5.24152 43.7174 16.0268 43.7174 16.0268C45.4164 16.5616 47.1193 17.3216 48.7255 18.249" stroke="#6B07ED" stroke-width="2"/>
</svg>
