<svg width="54" height="64" viewBox="0 0 54 64" fill="none" xmlns="http://www.w3.org/2000/svg">
<path d="M0.333328 36.6667V26.6667C0.333328 19.5942 3.14284 12.8115 8.14381 7.81049C13.1448 2.80952 19.9276 0 27 0C34.0724 0 40.8552 2.80952 45.8562 7.81049C50.8571 12.8115 53.6667 19.5942 53.6667 26.6667V36.6667M47 53.3333C47 58.8567 38.0467 63.3333 27 63.3333" stroke="#6B07ED" stroke-width="2" stroke-linecap="round" stroke-linejoin="round"/>
<path d="M0.333328 36.6667C0.333328 34.8986 1.03571 33.2029 2.28595 31.9526C3.53619 30.7024 5.23188 30 6.99999 30H10.3333C12.1014 30 13.7971 30.7024 15.0474 31.9526C16.2976 33.2029 17 34.8986 17 36.6667V46.6667C17 48.4348 16.2976 50.1305 15.0474 51.3807C13.7971 52.631 12.1014 53.3333 10.3333 53.3333H6.99999C5.23188 53.3333 3.53619 52.631 2.28595 51.3807C1.03571 50.1305 0.333328 48.4348 0.333328 46.6667V36.6667ZM37 36.6667C37 34.8986 37.7024 33.2029 38.9526 31.9526C40.2029 30.7024 41.8986 30 43.6667 30H47C48.7681 30 50.4638 30.7024 51.714 31.9526C52.9643 33.2029 53.6667 34.8986 53.6667 36.6667V46.6667C53.6667 48.4348 52.9643 50.1305 51.714 51.3807C50.4638 52.631 48.7681 53.3333 47 53.3333H43.6667C41.8986 53.3333 40.2029 52.631 38.9526 51.3807C37.7024 50.1305 37 48.4348 37 46.6667V36.6667Z" stroke="#6B07ED" stroke-width="2" stroke-linecap="round" stroke-linejoin="round"/>
</svg>
