<svg width="484" height="536" viewBox="0 0 484 536" fill="none" xmlns="http://www.w3.org/2000/svg">
<path d="M242 190.081C284.918 190.081 319.563 224.726 319.563 267.644C319.563 310.562 284.918 345.206 242 345.206C199.082 345.206 164.437 310.562 164.437 267.644C164.437 224.726 199.082 190.081 242 190.081Z" stroke="black" stroke-opacity="0.1" stroke-width="8" stroke-linecap="round"/>
<path d="M325.768 122.083C336.368 128.029 346.451 135.269 355.242 143.542C355.242 143.542 422.98 115.619 423.238 116.136L463.571 185.943C463.83 186.719 406.175 231.188 406.175 231.188C408.76 242.822 410.053 255.232 410.053 267.642" stroke="black" stroke-opacity="0.1" stroke-width="8"/>
<path d="M409.942 267.409C410.093 279.563 408.865 291.915 406.095 303.664C406.095 303.664 464.146 348.366 463.827 348.848L423.54 418.68C422.997 419.292 355.658 391.596 355.658 391.596C346.875 399.652 336.774 406.977 326.027 413.182" stroke="black" stroke-opacity="0.1" stroke-width="8"/>
<path d="M326.174 412.967C315.724 419.173 304.414 424.286 292.853 427.762C292.853 427.762 283.166 500.386 282.589 500.352L201.968 500.378C201.167 500.214 191.483 428.048 191.483 428.048C180.115 424.47 168.721 419.385 157.974 413.18" stroke="black" stroke-opacity="0.1" stroke-width="8"/>
<path d="M158.232 413.204C147.632 407.257 137.549 400.018 128.758 391.745C128.758 391.745 61.0203 419.667 60.7618 419.15L20.4291 349.344C20.1706 348.568 77.8256 304.099 77.8256 304.099C75.2401 292.465 73.9474 280.054 73.9474 267.644" stroke="black" stroke-opacity="0.1" stroke-width="8"/>
<path d="M74.0581 267.877C73.9078 255.724 75.1355 243.372 77.9053 231.623C77.9053 231.623 19.8545 186.921 20.173 186.439L60.4609 116.606C61.0034 115.995 128.342 143.691 128.342 143.691C137.125 135.634 147.226 128.31 157.974 122.105" stroke="black" stroke-opacity="0.1" stroke-width="8"/>
<path d="M157.826 122.319C168.276 116.112 179.587 110.999 191.147 107.523C191.147 107.523 200.834 34.8987 201.411 34.9334L282.032 34.9075C282.833 35.0715 292.517 107.237 292.517 107.237C303.885 110.815 315.279 115.9 326.026 122.105" stroke="black" stroke-opacity="0.1" stroke-width="8"/>
</svg>
