<svg width="364" height="378" viewBox="0 0 364 378" fill="none" xmlns="http://www.w3.org/2000/svg">
<path d="M0.5 189C0.5 213.82 5.19463 238.397 14.3159 261.327C23.4371 284.258 36.8063 305.093 53.6601 322.643C70.5139 340.193 90.5224 354.115 112.543 363.613C134.564 373.111 158.165 378 182 378C205.835 378 229.436 373.111 251.457 363.613C273.478 354.115 293.486 340.193 310.34 322.643C327.194 305.093 340.563 284.258 349.684 261.327C358.805 238.397 363.5 213.82 363.5 189C363.5 164.18 358.805 139.603 349.684 116.673C340.563 93.7423 327.194 72.9071 310.34 55.3568C293.486 37.8065 273.478 23.8849 251.457 14.3868C229.436 4.88863 205.835 0 182 0C158.165 0 134.564 4.88863 112.543 14.3868C90.5224 23.8849 70.5139 37.8065 53.6601 55.3568C36.8063 72.9071 23.4371 93.7423 14.3159 116.673C5.19463 139.603 0.5 164.18 0.5 189Z" stroke="black" stroke-opacity="0.1" stroke-width="8" stroke-linecap="round" stroke-linejoin="round"/>
<path d="M238.467 126C234.813 119.401 229.506 113.961 223.111 110.262C216.717 106.562 209.477 104.744 202.167 105H161.833C151.136 105 140.877 109.425 133.313 117.302C125.749 125.178 121.5 135.861 121.5 147C121.5 158.139 125.749 168.822 133.313 176.698C140.877 184.575 151.136 189 161.833 189H202.167C212.864 189 223.123 193.425 230.687 201.302C238.251 209.178 242.5 219.861 242.5 231C242.5 242.139 238.251 252.822 230.687 260.698C223.123 268.575 212.864 273 202.167 273H161.833C154.523 273.256 147.283 271.438 140.889 267.738C134.494 264.039 129.187 258.599 125.533 252M182 84V294" stroke="black" stroke-opacity="0.1" stroke-width="8" stroke-linecap="round" stroke-linejoin="round"/>
</svg>
