<svg width="324" height="384" viewBox="0 0 324 384" fill="none" xmlns="http://www.w3.org/2000/svg">
<path d="M0.666656 222.333V161.833C0.666656 119.045 17.6642 78.0093 47.9201 47.7534C78.176 17.4976 119.212 0.5 162 0.5C204.788 0.5 245.824 17.4976 276.08 47.7534C306.336 78.0093 323.333 119.045 323.333 161.833V222.333M283 323.167C283 356.583 228.832 383.667 162 383.667" stroke="black" stroke-opacity="0.1" stroke-width="8" stroke-linecap="round" stroke-linejoin="round"/>
<path d="M0.666656 222.333C0.666656 211.636 4.91605 201.377 12.48 193.813C20.044 186.249 30.3029 182 41 182H61.1667C71.8637 182 82.1227 186.249 89.6866 193.813C97.2506 201.377 101.5 211.636 101.5 222.333V282.833C101.5 293.53 97.2506 303.789 89.6866 311.353C82.1227 318.917 71.8637 323.167 61.1667 323.167H41C30.3029 323.167 20.044 318.917 12.48 311.353C4.91605 303.789 0.666656 293.53 0.666656 282.833V222.333ZM222.5 222.333C222.5 211.636 226.749 201.377 234.313 193.813C241.877 186.249 252.136 182 262.833 182H283C293.697 182 303.956 186.249 311.52 193.813C319.084 201.377 323.333 211.636 323.333 222.333V282.833C323.333 293.53 319.084 303.789 311.52 311.353C303.956 318.917 293.697 323.167 283 323.167H262.833C252.136 323.167 241.877 318.917 234.313 311.353C226.749 303.789 222.5 293.53 222.5 282.833V222.333Z" stroke="black" stroke-opacity="0.1" stroke-width="8" stroke-linecap="round" stroke-linejoin="round"/>
</svg>
