<svg width="60" height="60" viewBox="0 0 60 60" fill="none" xmlns="http://www.w3.org/2000/svg">
<path d="M0 30C-5.87054e-08 33.9397 0.775973 37.8407 2.28361 41.4805C3.79125 45.1203 6.00104 48.4274 8.7868 51.2132C11.5726 53.999 14.8797 56.2087 18.5195 57.7164C22.1593 59.224 26.0603 60 30 60C33.9397 60 37.8407 59.224 41.4805 57.7164C45.1203 56.2087 48.4274 53.999 51.2132 51.2132C53.999 48.4274 56.2087 45.1203 57.7164 41.4805C59.224 37.8407 60 33.9397 60 30C60 26.0603 59.224 22.1593 57.7164 18.5195C56.2087 14.8797 53.999 11.5726 51.2132 8.7868C48.4274 6.00104 45.1203 3.79126 41.4805 2.28361C37.8407 0.775973 33.9397 0 30 0C26.0603 0 22.1593 0.775973 18.5195 2.28361C14.8797 3.79126 11.5726 6.00104 8.7868 8.7868C6.00104 11.5726 3.79125 14.8797 2.28361 18.5195C0.775973 22.1593 -5.87054e-08 26.0603 0 30Z" stroke="black" stroke-width="2" stroke-linecap="round" stroke-linejoin="round"/>
<path d="M39.3333 19.9999C38.7295 18.9525 37.8522 18.0889 36.7953 17.5018C35.7384 16.9146 34.5417 16.6259 33.3333 16.6666H26.6667C24.8986 16.6666 23.2029 17.369 21.9526 18.6192C20.7024 19.8695 20 21.5651 20 23.3333C20 25.1014 20.7024 26.7971 21.9526 28.0473C23.2029 29.2975 24.8986 29.9999 26.6667 29.9999H33.3333C35.1014 29.9999 36.7971 30.7023 38.0474 31.9525C39.2976 33.2028 40 34.8985 40 36.6666C40 38.4347 39.2976 40.1304 38.0474 41.3806C36.7971 42.6309 35.1014 43.3333 33.3333 43.3333H26.6667C25.4583 43.3739 24.2616 43.0852 23.2047 42.4981C22.1478 41.9109 21.2705 41.0474 20.6667 39.9999M30 13.3333V46.6666" stroke="black" stroke-width="2" stroke-linecap="round" stroke-linejoin="round"/>
</svg>
