<svg width="80" height="80" viewBox="0 0 80 80" fill="none" xmlns="http://www.w3.org/2000/svg">
<path d="M40 73.0001C39.6111 73.0001 39.25 72.9723 38.9166 72.9168C38.5833 72.8612 38.25 72.7779 37.9166 72.6667C30.4166 70.1667 24.4444 65.5423 20 58.7934C15.5555 52.0445 13.3333 44.7801 13.3333 37.0001V21.2501C13.3333 19.8612 13.7366 18.6112 14.5433 17.5001C15.35 16.389 16.3911 15.5834 17.6666 15.0834L37.6666 7.58341C38.4444 7.30564 39.2222 7.16675 40 7.16675C40.7778 7.16675 41.5555 7.30564 42.3333 7.58341L62.3333 15.0834C63.6111 15.5834 64.6533 16.389 65.46 17.5001C66.2666 18.6112 66.6689 19.8612 66.6666 21.2501V37.0001C66.6666 44.7779 64.4444 52.0423 60 58.7934C55.5555 65.5445 49.5833 70.169 42.0833 72.6667C41.75 72.7779 41.4166 72.8612 41.0833 72.9168C40.75 72.9723 40.3889 73.0001 40 73.0001ZM39.9999 69C45.7777 67.1667 51.7221 62 55.4999 56.5C59.2777 51 61.4999 43.7223 61.4999 37.0001V20.5L40 12.5L18.4999 20.5V37.0001C18.4999 43.7223 20.7222 51 24.4999 56.5C28.2777 62 34.2222 67.1667 39.9999 69Z" fill="#6B07ED"/>
</svg>
