<svg width="521" height="521" viewBox="0 0 521 521" fill="none" xmlns="http://www.w3.org/2000/svg">
<path d="M260.5 475.412C257.967 475.412 255.615 475.232 253.444 474.87C251.274 474.508 249.103 473.965 246.932 473.242C198.088 456.96 159.194 426.844 130.25 382.892C101.305 338.939 86.833 291.63 86.833 240.962V138.391C86.833 129.345 89.4597 121.205 94.7131 113.969C99.9665 106.733 106.747 101.486 115.054 98.2301L245.304 49.3864C250.369 47.5774 255.434 46.6729 260.5 46.6729C265.565 46.6729 270.63 47.5774 275.695 49.3864L405.945 98.2301C414.267 101.486 421.055 106.733 426.308 113.969C431.561 121.205 434.181 129.345 434.166 138.391V240.962C434.166 291.615 419.694 338.925 390.75 382.892C361.805 426.858 322.911 456.975 274.067 473.242C271.897 473.965 269.726 474.508 267.555 474.87C265.384 475.232 263.032 475.412 260.5 475.412ZM260.499 449.362C298.127 437.422 336.84 403.774 361.443 367.956C386.046 332.137 400.518 284.741 400.518 240.962V133.506L260.5 81.4057L120.481 133.506V240.962C120.481 284.741 134.953 332.137 159.556 367.956C184.158 403.774 222.872 437.422 260.499 449.362Z" fill="black" fill-opacity="0.1"/>
</svg>
