<svg width="484" height="484" viewBox="0 0 484 484" fill="none" xmlns="http://www.w3.org/2000/svg">
<path d="M242 423.5C265.835 423.5 289.436 418.805 311.457 409.684C333.478 400.563 353.486 387.194 370.34 370.34C387.194 353.486 400.563 333.478 409.684 311.457C418.805 289.436 423.5 265.835 423.5 242C423.5 218.165 418.805 194.564 409.684 172.543C400.563 150.522 387.194 130.514 370.34 113.66C353.486 96.8063 333.478 83.4371 311.457 74.3159C289.436 65.1946 265.835 60.5 242 60.5M242 423.5C218.165 423.5 194.564 418.805 172.543 409.684C150.522 400.563 130.514 387.194 113.66 370.34C96.8063 353.486 83.4371 333.478 74.3159 311.457C65.1946 289.436 60.5 265.835 60.5 242C60.5 218.165 65.1946 194.564 74.3159 172.543C83.4371 150.522 96.8063 130.514 113.66 113.66C130.514 96.8063 150.522 83.4371 172.543 74.3159C194.564 65.1946 218.165 60.5 242 60.5M242 423.5C297.68 423.5 321.477 319.379 321.477 242C321.477 164.62 297.68 60.5 242 60.5M242 423.5C186.32 423.5 162.523 319.379 162.523 242C162.523 164.62 186.32 60.5 242 60.5M70.5833 181.5H413.417M70.5833 302.5H413.417" stroke="black" stroke-opacity="0.1" stroke-width="8" stroke-linecap="round" stroke-linejoin="round"/>
</svg>
