<svg width="150" height="212" viewBox="0 0 150 212" fill="none" xmlns="http://www.w3.org/2000/svg">
<path d="M37.5632 41.9102C34.5637 31.6683 26.6352 26.3901 17.6664 26.2336C9.55828 27.9972 6.71507 36.1797 6.07611 44.4671C5.43871 52.7545 8.32567 60.8603 11.169 68.6689C20.2987 93.7391 29.4286 118.811 38.5584 143.881C46.1868 142.734 53.8152 141.585 61.4421 140.438C52.7966 106.704 47.3491 75.3304 37.5632 41.9102Z" fill="#455A64"/>
<path d="M17.9727 25.5638C18.0539 25.6296 16.7963 26.7813 15.345 29.4149C13.8967 32.0204 12.4188 36.2313 12.3314 41.6034C12.1954 46.9755 13.6436 53.2849 15.9214 60.0246C18.2163 66.7957 20.7331 74.224 23.3765 82.0247C28.5959 97.6214 33.3186 111.735 36.7728 122.055C38.4272 127.123 39.7754 131.256 40.7408 134.217C41.172 135.595 41.5173 136.698 41.7797 137.537C42.0078 138.299 42.1141 138.705 42.0875 138.714C42.0594 138.723 41.8985 138.337 41.6188 137.592C41.3189 136.767 40.9237 135.68 40.43 134.323C39.402 131.384 37.9679 127.281 36.2072 122.247C32.6922 111.947 27.8866 97.8608 22.5766 82.297C19.9551 74.4869 17.457 67.0492 15.1809 60.2688C12.9343 53.4899 11.5174 47.0647 11.733 41.5894C11.9002 36.1187 13.4984 31.8483 15.0591 29.2522C16.6229 26.6264 17.9727 25.5638 17.9727 25.5638Z" fill="#263238"/>
<path d="M56.332 138.18C56.3054 138.193 56.1117 137.821 55.768 137.098C55.4368 136.371 54.9041 135.317 54.3277 133.912C53.1169 131.126 51.5453 127.015 49.8815 121.845C48.2099 116.676 46.5195 110.43 44.8495 103.45C43.2341 96.4557 41.4609 88.7802 39.5987 80.7228C37.674 72.6827 35.5853 65.0854 33.2435 58.3253C30.9079 51.5637 28.3536 45.6361 25.8275 40.8555C23.3123 36.0702 20.9454 32.3772 19.1801 29.9205C18.338 28.6623 17.582 27.761 17.1274 27.1037C16.6571 26.459 16.4197 26.1116 16.4431 26.0928C16.465 26.0741 16.7462 26.3855 17.2617 26.9973C17.7601 27.6201 18.5615 28.4918 19.4473 29.7248C21.3001 32.1316 23.7591 35.7948 26.3572 40.5722C28.9661 45.345 31.5923 51.2851 33.9809 58.0656C36.3743 64.846 38.4927 72.4667 40.4221 80.5241C42.2608 88.5892 44.0121 96.2694 45.6087 103.269C47.2351 110.247 48.8597 116.49 50.4532 121.665C52.0373 126.842 53.5184 130.97 54.6323 133.786C55.1603 135.207 55.6415 136.281 55.9227 137.029C56.2164 137.77 56.3585 138.168 56.332 138.18Z" fill="#263238"/>
<path d="M11.4268 64.8491C11.4909 65.0744 10.2613 65.6237 8.67878 66.0759C7.09622 66.5297 5.76212 66.7144 5.69807 66.4891C5.63402 66.2637 6.86347 65.7145 8.44602 65.2622C10.0286 64.81 11.3628 64.6253 11.4268 64.8491Z" fill="#263238"/>
<path d="M8.35858 49.2336C8.35546 49.4715 6.62291 49.6389 4.49825 49.8111C2.37359 49.9785 0.6363 50.088 0.595681 49.8533C0.555063 49.6264 2.26107 49.1366 4.43103 48.966C6.59943 48.7908 8.36327 49.0051 8.35858 49.2336Z" fill="#263238"/>
<path d="M10.3707 34.7776C10.227 34.9623 8.94598 34.2002 7.50871 33.0767C6.07144 31.9516 5.02314 30.8906 5.16687 30.7075C5.31059 30.5229 6.59169 31.2849 8.02895 32.41C9.46622 33.5336 10.5144 34.5945 10.3707 34.7776Z" fill="#263238"/>
<path d="M16.8462 21.209C17.0821 21.2528 17.0618 22.3732 17.0821 23.7284C17.0931 25.0835 17.1368 26.2039 16.904 26.2524C16.6822 26.3041 16.2494 25.1883 16.2369 23.7377C16.2166 22.2887 16.6228 21.1636 16.8462 21.209Z" fill="#263238"/>
<path d="M31.4282 26.8894C31.6251 27.0161 31.1095 28.1725 30.2753 29.4729C29.4426 30.7733 28.6068 31.7247 28.4099 31.5995C28.2131 31.4728 28.7287 30.3164 29.5629 29.016C30.3972 27.7156 31.2314 26.7642 31.4282 26.8894Z" fill="#263238"/>
<path d="M41.3783 42.6958C41.4751 42.9086 40.3128 43.6472 38.7818 44.3467C37.2508 45.0446 35.9322 45.4389 35.8354 45.2246C35.7385 45.0117 36.9009 44.2731 38.4319 43.5736C39.9613 42.8757 41.2814 42.483 41.3783 42.6958Z" fill="#263238"/>
<path d="M47.6897 59.1139C47.7928 59.3158 46.2524 60.2797 44.109 60.854C41.9672 61.4362 40.1519 61.3783 40.1409 61.1514C40.1206 60.9104 41.8359 60.5959 43.8887 60.0357C45.9447 59.488 47.5866 58.8964 47.6897 59.1139Z" fill="#263238"/>
<path d="M21.6001 55.4335C21.3735 55.3724 21.4892 54.216 21.8579 52.8499C22.225 51.4838 22.7062 50.426 22.9327 50.487C23.1577 50.548 23.0437 51.7045 22.675 53.0706C22.3063 54.4351 21.825 55.4945 21.6001 55.4335Z" fill="#263238"/>
<path d="M26.054 76.1864C25.8369 76.1019 26.2399 74.5339 26.9539 72.6843C27.6694 70.8346 28.4255 69.4028 28.6427 69.4873C28.8598 69.5718 28.4583 71.1398 27.7428 72.9894C27.0289 74.8406 26.2728 76.2709 26.054 76.1864Z" fill="#263238"/>
<path d="M17.3602 82.2703C17.2789 82.4941 15.8057 82.1545 14.0201 81.6757C12.236 81.1922 10.7925 80.7462 10.8331 80.5115C10.8722 80.2846 12.4156 80.3628 14.2403 80.8573C16.0666 81.3455 17.4398 82.0528 17.3602 82.2703Z" fill="#263238"/>
<path d="M23.1921 99.1034C23.3358 99.288 22.3875 100.264 21.0768 101.285C19.7645 102.305 18.5865 102.981 18.4428 102.796C18.299 102.612 19.2458 101.635 20.5581 100.615C21.8688 99.5947 23.0483 98.9187 23.1921 99.1034Z" fill="#263238"/>
<path d="M28.0022 115.927C28.0662 116.152 26.868 116.694 25.326 117.135C23.7841 117.578 22.4812 117.753 22.4171 117.529C22.3531 117.306 23.5513 116.764 25.0933 116.321C26.6352 115.877 27.9381 115.702 28.0022 115.927Z" fill="#263238"/>
<path d="M48.7161 73.2898C48.841 73.4807 47.8334 74.3554 46.3399 74.9861C44.8479 75.6229 43.5201 75.7388 43.4701 75.5166C43.4138 75.2834 44.5917 74.8124 46.0103 74.2068C47.4288 73.6075 48.588 73.0879 48.7161 73.2898Z" fill="#263238"/>
<path d="M52.9794 99.5932C52.8888 99.8092 51.6328 99.4837 50.1752 98.8671C48.7161 98.2506 47.6084 97.5761 47.699 97.3602C47.7896 97.1442 49.0457 97.4697 50.5049 98.0863C51.9624 98.7028 53.0701 99.3773 52.9794 99.5932Z" fill="#263238"/>
<path d="M59.3894 118.279C59.3128 118.5 57.6569 118.127 55.69 117.445C53.7231 116.763 52.1905 116.03 52.267 115.81C52.3436 115.589 53.9996 115.961 55.9665 116.644C57.9334 117.326 59.4659 118.058 59.3894 118.279Z" fill="#263238"/>
<path d="M29.6489 134.323C29.5254 134.115 30.9923 133.038 32.678 131.591C34.3715 130.151 35.6635 128.871 35.8494 129.025C36.026 129.165 34.9854 130.74 33.2279 132.236C31.4766 133.739 29.7598 134.52 29.6489 134.323Z" fill="#263238"/>
<path d="M44.1934 124.102C43.9544 124.139 43.5794 122.883 42.942 121.429C42.3171 119.969 41.6594 118.836 41.85 118.687C42.0219 118.542 43.042 119.518 43.7184 121.092C44.4027 122.66 44.4184 124.075 44.1934 124.102Z" fill="#263238"/>
<path d="M39.3192 101.513C39.1911 101.709 38.2084 101.288 37.1242 100.573C36.04 99.8576 35.2651 99.119 35.3948 98.9234C35.5229 98.7278 36.5056 99.1488 37.5898 99.8639C38.6724 100.581 39.4473 101.318 39.3192 101.513Z" fill="#263238"/>
<path d="M56.0945 82.7414C56.1539 82.962 54.8119 83.5066 53.056 83.6913C51.3 83.8822 49.8752 83.6365 49.8862 83.4081C49.8955 83.1686 51.2797 83.034 52.9669 82.8494C54.6526 82.6726 56.0352 82.5098 56.0945 82.7414Z" fill="#263238"/>
<path d="M57.485 69.0835C57.4771 69.3089 56.1024 69.4012 54.5682 68.7628C53.031 68.1337 52.1186 67.0993 52.2717 66.9335C52.4263 66.7473 53.4918 67.4107 54.8916 67.9788C56.282 68.5625 57.5053 68.8426 57.485 69.0835Z" fill="#263238"/>
<path d="M60.1314 106.467C60.1001 106.699 58.9425 106.733 57.5443 106.544C56.1476 106.355 55.0401 106.014 55.0713 105.782C55.1026 105.55 56.2601 105.516 57.6583 105.705C59.0565 105.895 60.1626 106.236 60.1314 106.467Z" fill="#263238"/>
<path d="M102.179 81.3691C102.017 81.5366 100.872 80.6916 99.6219 79.4804C98.3721 78.2676 97.4895 77.1503 97.652 76.9813C97.8144 76.8123 98.9595 77.6589 100.209 78.8701C101.459 80.0828 102.342 81.2001 102.179 81.3691Z" fill="#263238"/>
<path d="M144.254 29.6263C144.962 24.4874 145.605 19.2108 144.438 14.1564C143.273 9.10195 139.925 4.24 134.974 2.71585C129.325 0.977322 123.078 4.06319 119.386 8.68728C115.694 13.3098 114.021 19.1873 112.522 24.9146C102.183 64.3735 95.9257 104.903 93.8807 145.645L117.147 151.181C131.489 109.774 138.275 73.0411 144.254 29.6263Z" fill="#455A64"/>
<path d="M131.718 2.22451C131.731 2.23234 131.682 2.35592 131.576 2.59065C131.445 2.86919 131.282 3.20878 131.086 3.62502C130.608 4.5874 129.955 5.89873 129.131 7.55745C128.719 8.41655 128.191 9.33667 127.736 10.4039C127.28 11.4742 126.785 12.6322 126.255 13.8731C125.721 15.1203 125.151 16.4488 124.548 17.8556C124.023 19.3 123.47 20.8257 122.89 22.4234C120.495 28.8017 118.272 36.618 116.138 45.367C114.027 54.1285 112.265 63.8868 110.636 74.1615C107.485 94.7407 105.53 113.506 103.723 127.039C102.832 133.807 102.084 139.281 101.467 143.05C101.17 144.88 100.934 146.327 100.761 147.39C100.678 147.842 100.611 148.211 100.556 148.515C100.505 148.768 100.472 148.896 100.458 148.893C100.444 148.892 100.448 148.759 100.47 148.501C100.503 148.194 100.542 147.821 100.592 147.363C100.726 146.296 100.909 144.84 101.14 143.003C101.656 139.223 102.314 133.74 103.128 126.965C104.784 113.42 106.643 94.6437 109.798 74.0317C111.431 63.7397 113.22 53.9626 115.379 45.1855C117.561 36.4193 119.852 28.592 122.326 22.2168C122.928 20.6192 123.502 19.0981 124.046 17.6538C124.673 16.2501 125.265 14.9247 125.821 13.6822C126.374 12.4476 126.893 11.2959 127.369 10.2302C127.847 9.17081 128.398 8.25693 128.834 7.40879C129.72 5.7798 130.42 4.48881 130.934 3.54365C131.161 3.14462 131.346 2.81755 131.498 2.54996C131.632 2.32619 131.706 2.21669 131.718 2.22451Z" fill="#263238"/>
<path d="M133.902 2.44348C133.902 2.44348 135.208 4.06625 136.324 7.60121C137.491 11.1127 137.917 16.563 137.038 23.0821C135.185 36.0733 132.328 53.9454 128.911 73.6545C125.485 93.3667 122.07 111.153 119.458 123.998C118.153 130.42 117.057 135.611 116.272 139.191C115.883 140.924 115.574 142.296 115.346 143.308C115.241 143.736 115.155 144.085 115.083 144.376C115.019 144.615 114.98 144.736 114.966 144.732C114.952 144.729 114.963 144.602 114.999 144.357C115.048 144.063 115.107 143.707 115.179 143.274C115.368 142.254 115.626 140.87 115.949 139.124C116.654 135.448 117.647 130.261 118.87 123.883C121.331 111.012 124.651 93.2133 128.077 73.5089C131.492 53.8139 134.444 35.9404 136.444 23.0054C137.391 16.5395 137.06 11.1878 136.008 7.69352C135.007 4.18203 133.793 2.49356 133.902 2.44348Z" fill="#263238"/>
<path d="M144.504 65.1105C144.405 65.3218 142.453 64.616 140.144 63.5316C137.835 62.4472 136.043 61.3972 136.143 61.1843C136.241 60.9731 138.194 61.6788 140.503 62.7633C142.812 63.8477 144.604 64.8993 144.504 65.1105Z" fill="#263238"/>
<path d="M149.606 41.3093C149.681 41.5315 147.678 42.4109 145.133 43.2763C142.587 44.1416 140.462 44.6628 140.387 44.4405C140.312 44.2183 142.315 43.3389 144.862 42.4735C147.406 41.6082 149.531 41.0871 149.606 41.3093Z" fill="#263238"/>
<path d="M149.981 21.5251C149.943 21.7567 148.361 21.6879 146.449 21.3733C144.535 21.0588 143.017 20.6159 143.054 20.3843C143.092 20.1543 144.672 20.2216 146.586 20.5361C148.498 20.8507 150.018 21.2935 149.981 21.5251Z" fill="#263238"/>
<path d="M126.832 6.64198C126.622 6.74839 125.712 5.36195 124.796 3.54675C123.881 1.73154 123.307 0.17449 123.516 0.068081C123.724 -0.036763 124.637 1.34812 125.552 3.1649C126.468 4.9801 127.041 6.53714 126.832 6.64198Z" fill="#263238"/>
<path d="M117.675 17.7617C117.649 17.9949 116.133 18.0106 114.293 17.7962C112.451 17.5834 110.981 17.2219 111.008 16.9887C111.034 16.7571 112.548 16.7399 114.39 16.9543C116.232 17.1671 117.702 17.5286 117.675 17.7617Z" fill="#263238"/>
<path d="M109.669 40.9871C109.561 41.1952 108.024 40.6131 106.236 39.6867C104.448 38.7603 103.085 37.8402 103.192 37.632C103.299 37.4239 104.835 38.006 106.626 38.9324C108.413 39.8588 109.777 40.7789 109.669 40.9871Z" fill="#263238"/>
<path d="M107.172 60.9167C107.199 61.1499 105.81 61.4973 104.073 61.6945C102.334 61.8916 100.905 61.8634 100.878 61.6303C100.852 61.3971 102.239 61.0498 103.978 60.851C105.716 60.6554 107.146 60.6851 107.172 60.9167Z" fill="#263238"/>
<path d="M101.383 93.3573C101.403 93.5905 99.9345 93.9034 98.1035 94.0568C96.2726 94.2102 94.7727 94.146 94.754 93.9128C94.7337 93.6797 96.2023 93.3667 98.0332 93.2134C99.8642 93.06 101.364 93.1242 101.383 93.3573Z" fill="#263238"/>
<path d="M97.8816 111.236C97.9707 111.451 96.7021 112.184 95.0493 112.869C93.3949 113.556 91.981 113.936 91.892 113.721C91.8029 113.505 93.0715 112.772 94.7243 112.087C96.3787 111.401 97.7926 111.02 97.8816 111.236Z" fill="#263238"/>
<path d="M110.67 133.11C110.458 133.207 109.556 131.677 108.656 129.693C107.757 127.707 107.2 126.02 107.413 125.923C107.625 125.826 108.527 127.356 109.427 129.342C110.327 131.325 110.883 133.013 110.67 133.11Z" fill="#263238"/>
<path d="M118.116 99.4664C118.263 99.648 116.977 100.937 115.244 102.346C113.51 103.754 111.987 104.749 111.84 104.568C111.693 104.386 112.978 103.097 114.712 101.688C116.444 100.28 117.969 99.2849 118.116 99.4664Z" fill="#263238"/>
<path d="M118.856 81.5162C118.67 81.6586 117.683 80.6774 116.649 79.3254C115.615 77.9734 114.927 76.7606 115.113 76.6198C115.299 76.4774 116.286 77.4586 117.321 78.8106C118.353 80.1626 119.041 81.3738 118.856 81.5162Z" fill="#263238"/>
<path d="M123.92 58.9686C124.079 59.1407 122.988 60.4082 121.486 61.8009C119.983 63.1936 118.635 64.1826 118.477 64.0104C118.317 63.8383 119.408 62.5708 120.911 61.1781C122.414 59.7854 123.76 58.7964 123.92 58.9686Z" fill="#263238"/>
<path d="M127.121 42.5581C126.942 42.7083 125.699 41.5253 124.344 39.9151C122.99 38.3049 122.035 36.8762 122.215 36.726C122.393 36.5758 123.637 37.7588 124.991 39.369C126.346 40.9808 127.299 42.4079 127.121 42.5581Z" fill="#263238"/>
<path d="M132.453 20.4735C132.642 20.6112 131.826 22.0493 130.633 23.683C129.437 25.3182 128.317 26.531 128.128 26.3933C127.939 26.2556 128.755 24.8175 129.948 23.1838C131.143 21.5486 132.264 20.3343 132.453 20.4735Z" fill="#263238"/>
<path d="M140.476 0.296608C140.67 0.426489 139.933 1.87239 138.83 3.52642C137.725 5.18045 136.674 6.41511 136.479 6.28523C136.285 6.15534 137.022 4.70944 138.125 3.05541C139.23 1.40138 140.281 0.166727 140.476 0.296608Z" fill="#263238"/>
<path d="M146.48 10.371C146.561 10.5901 145.555 11.1628 144.235 11.6495C142.913 12.1362 141.778 12.3521 141.696 12.1331C141.615 11.914 142.621 11.3412 143.943 10.8546C145.263 10.3679 146.4 10.1504 146.48 10.371Z" fill="#263238"/>
<path d="M139.641 84.9041C139.573 85.1185 137.463 84.6224 135.133 83.3502C132.798 82.0874 131.232 80.5851 131.376 80.413C131.526 80.2221 133.276 81.3848 135.538 82.6053C137.792 83.8384 139.719 84.674 139.641 84.9041Z" fill="#263238"/>
<path d="M135.341 100.423C135.363 100.656 133.899 100.989 132.071 101.166C130.242 101.343 128.742 101.299 128.72 101.066C128.698 100.833 130.161 100.499 131.99 100.322C133.818 100.144 135.318 100.189 135.341 100.423Z" fill="#263238"/>
<path d="M129.336 127.158C129.183 127.321 127.497 125.915 126.043 123.662C124.576 121.415 123.977 119.302 124.188 119.227C124.415 119.136 125.34 121.038 126.752 123.199C128.15 125.369 129.511 126.986 129.336 127.158Z" fill="#263238"/>
<path d="M90.2719 135.96C90.1375 135.769 91.1952 134.789 92.6356 133.774C94.076 132.758 95.3523 132.09 95.4867 132.281C95.621 132.472 94.5634 133.452 93.123 134.467C91.6842 135.483 90.4062 136.151 90.2719 135.96Z" fill="#263238"/>
<path d="M85.4993 64.6285C84.5603 58.9481 82.2294 52.1458 76.5553 51.2288C73.1887 50.6842 69.7986 52.6637 67.7755 55.4131C65.7524 58.1626 64.5729 61.5238 64.176 64.9164C61.5593 87.3326 61.6812 113.428 65.9868 137.813L86.7943 140.869C90.3109 115.002 89.7579 90.3857 85.4993 64.6285Z" fill="#455A64"/>
<path d="M76.5554 51.2288C76.6351 51.3117 75.5665 52.0394 74.3605 53.9188C73.1622 55.8091 72.2577 58.9732 72.0374 62.9901C71.8609 67.0102 71.6156 71.8486 71.5125 77.1722C71.4235 82.5098 71.5265 88.3827 71.8187 94.5403C72.4186 106.86 73.495 117.992 74.0324 126.072C74.312 130.111 74.4901 133.383 74.5729 135.645C74.5979 136.684 74.6182 137.545 74.6354 138.252C74.6385 138.849 74.6245 139.163 74.5917 139.165C74.5589 139.166 74.5073 138.856 74.4417 138.263C74.3761 137.559 74.2964 136.703 74.1995 135.669C73.9871 133.265 73.7011 130.042 73.3543 126.126C72.6451 118.069 71.4609 106.943 70.8579 94.5857C70.5642 88.4092 70.4892 82.513 70.6267 77.1534C70.6798 74.4728 70.8282 71.93 70.9595 69.5499C71.111 67.187 71.175 64.9649 71.3594 62.9369C71.6656 58.8746 72.7061 55.6025 74.0465 53.7137C75.3947 51.8328 76.5554 51.2288 76.5554 51.2288Z" fill="#263238"/>
<path d="M87.3943 57.5492C87.5192 57.7839 86.3085 58.6759 84.6884 59.5412C83.07 60.4066 81.6546 60.9167 81.5296 60.682C81.4046 60.4473 82.6154 59.5553 84.2354 58.6915C85.8555 57.8246 87.2693 57.3144 87.3943 57.5492Z" fill="#263238"/>
<path d="M90.9328 74.5934C90.9203 74.8516 89.2128 74.9581 87.196 74.4307C85.1775 73.9112 83.7355 72.9895 83.8496 72.7579C83.9652 72.5107 85.5165 73.0051 87.4381 73.4981C89.3549 74.0004 90.9531 74.3211 90.9328 74.5934Z" fill="#263238"/>
<path d="M90.5703 92.2792C90.3984 92.481 88.9205 91.4999 87.2708 90.0868C85.6211 88.6738 84.4229 87.364 84.5963 87.1622C84.7681 86.9603 86.246 87.9415 87.8957 89.3545C89.5455 90.7676 90.7421 92.0773 90.5703 92.2792Z" fill="#263238"/>
<path d="M139.294 130.555H18.9021V151.929H139.294V130.555Z" fill="#FF725E"/>
<path d="M27.8928 147.688L42.5327 211.56H114.287L130.303 147.688H27.8928Z" fill="#FF725E"/>
<path d="M139.228 151.956C139.228 152.19 112.071 152.38 78.5815 152.38C45.0791 152.38 17.9288 152.19 17.9288 151.956C17.9288 151.723 45.0791 151.532 78.5815 151.532C112.071 151.532 139.228 151.723 139.228 151.956Z" fill="#263238"/>
<path d="M79.0488 77.0892C78.8051 77.1956 78.038 75.9797 77.335 74.3711C76.632 72.7624 76.2586 71.3729 76.5023 71.2665C76.746 71.1601 77.5131 72.376 78.2161 73.9846C78.9191 75.5917 79.2909 76.9828 79.0488 77.0892Z" fill="#263238"/>
<path d="M76.2648 96.4464C76.0273 96.3259 76.5835 94.7376 77.5083 92.8989C78.4332 91.0587 79.3752 89.6644 79.6111 89.7848C79.8485 89.9053 79.2924 91.4921 78.3676 93.3323C77.4427 95.1726 76.5007 96.5669 76.2648 96.4464Z" fill="#263238"/>
<path d="M79.9017 117.733C79.647 117.811 78.8737 116.04 78.1723 113.774C77.4708 111.508 77.1083 109.608 77.3614 109.528C77.6145 109.45 78.3894 111.222 79.0909 113.487C79.7923 115.753 80.1563 117.655 79.9017 117.733Z" fill="#263238"/>
<path d="M58.816 126.54C58.6505 126.33 59.6893 125.233 61.136 124.088C62.5826 122.942 63.8887 122.183 64.0527 122.391C64.2167 122.599 63.1794 123.698 61.7328 124.843C60.2861 125.989 58.9801 126.749 58.816 126.54Z" fill="#263238"/>
</svg>
