<svg width="80" height="80" viewBox="0 0 80 80" fill="none" xmlns="http://www.w3.org/2000/svg">
<path d="M9.00031 6.6665C9.55259 6.6665 10.0003 7.11422 10.0003 7.6665V69.5949C10.0003 69.871 10.2242 70.0949 10.5003 70.0949H72.3337C72.8859 70.0949 73.3337 70.5426 73.3337 71.0949V72.3332C73.3337 72.8855 72.8859 73.3332 72.3337 73.3332H7.66699C7.11471 73.3332 6.66699 72.8855 6.66699 72.3332V7.6665C6.66699 7.11422 7.11471 6.6665 7.66699 6.6665H9.00031ZM53.3337 25.7262C53.3337 25.2983 53.6226 24.9244 54.0366 24.8164L70.1898 20.6025C71.0483 20.3786 71.7515 21.3003 71.3089 22.0691L63.377 35.8455C63.1541 36.2327 62.7013 36.425 62.2679 36.3166L62.0283 36.2568C61.4704 36.1173 61.1449 35.5372 61.3164 34.9883L63.5003 27.9998L57.5003 33.9998L51.0003 40.4998L50.6364 40.6817C50.2556 40.8721 49.796 40.8005 49.4911 40.5033L36.667 27.9998L17.1691 47.3365C16.8045 47.6981 16.212 47.6829 15.8663 47.3031C15.5421 46.9468 15.5549 46.3985 15.8956 46.0578L35.9599 25.9904C36.3504 25.5998 36.9836 25.5998 37.3742 25.9903L49.6473 38.2635C49.8424 38.4585 50.1585 38.4588 50.3539 38.264L56.697 31.9398L61.9803 26.6665H54.2739C53.7546 26.6665 53.3337 26.2455 53.3337 25.7262Z" fill="black"/>
</svg>
