<svg width="484" height="484" viewBox="0 0 484 484" fill="none" xmlns="http://www.w3.org/2000/svg">
<path d="M89.6663 343C90.2186 343 90.6663 343.448 90.6663 344V404.833C90.6663 405.109 90.8902 405.333 91.1663 405.333H452.666C453.219 405.333 453.666 405.781 453.666 406.333V444.667C453.666 445.219 453.219 445.667 452.666 445.667H51.333C50.7807 445.667 50.333 445.219 50.333 444.667V344C50.333 343.448 50.7807 343 51.333 343L89.6663 343ZM332.666 155.706C332.666 155.266 332.955 154.877 333.377 154.749L437.81 123.162C438.645 122.91 439.38 123.773 438.998 124.557L394.428 216.119C394.19 216.609 393.604 216.818 393.11 216.589L388.176 214.312C387.775 214.127 387.543 213.7 387.605 213.263L394 168.5L369.5 192.031L323.5 235.631L313.199 247.681C312.822 248.123 312.148 248.151 311.735 247.742L231.833 168.5L108.251 289.266C107.842 289.665 107.182 289.641 106.803 289.213L103.108 285.038C102.757 284.642 102.775 284.042 103.149 283.668L231.126 155.671C231.516 155.281 232.15 155.281 232.54 155.671L312.147 235.278C312.342 235.473 312.658 235.473 312.853 235.278L353.015 195.237L384.979 163.333H333.666C333.114 163.333 332.666 162.886 332.666 162.333V155.706Z" fill="black" fill-opacity="0.1"/>
</svg>
