<svg width="104" height="101" viewBox="0 0 104 101" fill="none" xmlns="http://www.w3.org/2000/svg">
<path d="M90.581 100.524H13.5262C6.53666 100.524 0.868835 94.8488 0.868835 87.8462V13.6261C0.868835 6.62501 6.5351 0.947754 13.5262 0.947754H90.581C97.5705 0.947754 103.238 6.62344 103.238 13.6261V87.8462C103.238 94.8488 97.5721 100.524 90.581 100.524Z" fill="#FAFAFA"/>
<path d="M90.581 100.524C90.5685 100.443 91.9479 100.592 94.3756 99.8563C95.5708 99.4557 97.0096 98.7829 98.4437 97.6202C99.8685 96.4622 101.257 94.7628 102.16 92.5486C102.612 91.4422 102.888 90.1997 103.01 88.8837C103.106 87.5708 103.029 86.1421 103.045 84.6759C103.034 81.7308 103.023 78.5323 103.012 75.0975C102.995 68.22 102.974 60.3943 102.951 51.747C102.935 43.0935 102.92 33.6184 102.901 23.447C102.898 20.9041 102.895 18.3175 102.89 15.6885C102.881 14.3662 102.94 13.0471 102.731 11.7764C102.542 10.4948 102.156 9.22734 101.543 8.06153C100.356 5.71585 98.3797 3.71912 95.9347 2.55801C94.7193 1.97746 93.4055 1.55179 92.0417 1.41409C90.6982 1.27482 89.2593 1.33431 87.8345 1.32335C64.9928 1.33274 39.8876 1.34369 13.534 1.35621C10.336 1.34682 7.19125 2.6472 4.94942 4.87083C2.68572 7.07412 1.35467 10.1615 1.29062 13.2756C1.28281 19.7008 1.27345 26.0321 1.26563 32.2523C1.25782 44.7021 1.24999 56.7091 1.24218 68.1496C1.23593 73.8691 1.23126 79.4462 1.22501 84.8668C1.24376 86.2094 1.17658 87.5927 1.27188 88.8712C1.38905 90.1622 1.68585 91.4281 2.17014 92.6111C3.17311 94.9615 4.8666 96.9692 6.96626 98.279C9.05342 99.6216 11.4968 100.237 13.898 100.197C16.3476 100.202 18.7519 100.205 21.1093 100.21C25.8226 100.219 30.3469 100.229 34.6665 100.237C51.9184 100.291 65.8897 100.335 75.5772 100.366C80.3842 100.399 84.1273 100.426 86.7004 100.443C87.9517 100.46 88.9125 100.474 89.5936 100.484C90.2467 100.496 90.581 100.524 90.581 100.524C90.581 100.524 90.2466 100.553 89.5952 100.567C88.914 100.576 87.9533 100.59 86.7019 100.607C84.1304 100.625 80.3873 100.651 75.5787 100.684C65.8912 100.715 51.92 100.759 34.6681 100.814C30.3484 100.822 25.8242 100.831 21.1109 100.841C18.7535 100.845 16.3492 100.848 13.8996 100.853C11.4125 100.903 8.8035 100.263 6.60697 98.8533C4.38858 97.4778 2.59511 95.3652 1.52809 92.8834C1.01255 91.6331 0.695391 90.2967 0.568849 88.9322C0.464178 87.5458 0.531364 86.236 0.509492 84.8699C0.503243 79.4509 0.498578 73.8722 0.492329 68.1528C0.484517 56.7123 0.476683 44.7037 0.468872 32.2555C0.473559 26.0274 0.476676 19.6883 0.481363 13.2552C0.54854 9.93777 1.96862 6.64063 4.37917 4.29338C6.76785 1.92422 10.1251 0.533097 13.5324 0.545616C39.886 0.55657 64.9913 0.567518 87.833 0.578471C89.2609 0.59412 90.6669 0.531552 92.1276 0.683341C93.5727 0.832001 94.9662 1.2858 96.2535 1.90391C98.8406 3.1417 100.928 5.25891 102.179 7.74387C103.523 10.2069 103.676 13.1253 103.584 15.6948C103.58 18.3237 103.576 20.9104 103.573 23.4533C103.555 33.6247 103.538 43.0997 103.523 51.7533C103.501 60.4006 103.48 68.2263 103.462 75.1038C103.449 78.5386 103.438 81.7371 103.429 84.6821C103.401 86.1593 103.466 87.5505 103.357 88.9181C103.221 90.2701 102.924 91.5439 102.449 92.6737C101.501 94.9349 100.061 96.6547 98.5922 97.8142C97.1143 98.9784 95.6411 99.6388 94.4226 100.019C93.1899 100.365 92.2182 100.495 91.5668 100.523C90.9137 100.535 90.581 100.524 90.581 100.524Z" fill="#263238"/>
<path d="M23.5105 24.4125H79.3281L79.4187 43.1388H76.7488C75.874 36.4398 73.3681 31.9064 69.2344 29.542C66.9098 28.2385 63.44 27.5265 58.822 27.4044V76.3243C58.822 79.7435 59.4188 82.0125 60.6108 83.1313C61.8028 84.2502 64.2852 84.8104 68.058 84.8104V87.1686H35.0117V84.8104C38.633 84.8104 41.0389 84.2439 42.2325 83.1078C43.4245 81.9733 44.0212 79.7122 44.0212 76.3243V27.4044C39.4938 27.5265 36.0241 28.2385 33.6104 29.542C29.1736 31.9675 26.6678 36.4992 26.0945 43.1388H23.423L23.5105 24.4125Z" fill="#263238"/>
</svg>
