<svg width="142" height="210" viewBox="0 0 142 210" fill="none" xmlns="http://www.w3.org/2000/svg">
<path d="M0.601074 11.3605V198.601C0.601074 204.161 5.10042 208.667 10.6511 208.667H14.1786H42.3522H131.16C136.711 208.667 141.21 204.161 141.21 198.601V11.3605C141.21 5.80067 136.711 1.29395 131.16 1.29395H10.6511C5.10042 1.29395 0.601074 5.80067 0.601074 11.3605Z" fill="white"/>
<path d="M0.601099 11.3605C0.601099 11.3605 0.594909 11.2119 0.60272 10.9177C0.601157 10.6235 0.623011 10.1838 0.721433 9.60948C0.904216 8.47341 1.38535 6.73487 2.81012 4.93687C4.21615 3.19208 6.72206 1.37688 10.1059 1.20162C13.4194 1.13433 17.2203 1.16092 21.5118 1.13589C38.6841 1.10459 63.502 1.06079 94.1642 1.00602C101.833 0.998193 109.866 0.988807 118.239 0.979418C122.424 0.974723 126.693 0.971577 131.044 0.966882C135.553 0.837001 140.063 4.09655 141.191 8.69247C141.507 9.80663 141.577 11.0272 141.55 12.1492C141.552 13.2884 141.552 14.4307 141.553 15.5793C141.555 17.8749 141.557 20.1909 141.558 22.5241C141.561 27.192 141.564 31.9319 141.568 36.7437C141.572 46.3659 141.578 56.2698 141.585 66.424C141.594 107.047 141.605 151.707 141.618 198.584C141.636 201.641 140.219 204.644 137.906 206.597C136.759 207.588 135.38 208.292 133.927 208.691C132.467 209.117 130.927 209.077 129.512 209.073C123.733 209.073 117.992 209.071 112.293 209.071C100.894 209.07 89.6634 209.066 78.6276 209.065C56.5562 209.057 35.2674 209.049 14.9863 209.041C13.7193 209.041 12.4555 209.04 11.1963 209.04C9.93248 209.054 8.59205 208.923 7.36881 208.5C4.89889 207.689 2.78514 205.918 1.55252 203.668C0.930747 202.546 0.524554 201.313 0.352706 200.051C0.183984 198.77 0.259055 197.551 0.243433 196.333C0.244995 193.892 0.246543 191.47 0.248105 189.063C0.254354 179.439 0.262166 170.097 0.268415 161.065C0.2856 143.001 0.302757 126.174 0.31838 110.811C0.373058 80.0975 0.416814 55.2401 0.448059 38.0425C0.480866 29.4641 0.507442 22.7979 0.524626 18.2583C0.541811 16.0096 0.555873 14.2899 0.565246 13.1131C0.573058 11.9536 0.601099 11.3605 0.601099 11.3605C0.601099 11.3605 0.629279 11.9536 0.64334 13.1131C0.652713 14.2899 0.666775 16.0096 0.68396 18.2583C0.701144 22.7979 0.72772 29.4641 0.760527 38.0425C0.791772 55.2416 0.835528 80.0975 0.890206 110.811C0.905829 126.174 0.921424 143.001 0.940171 161.065C0.94642 170.097 0.95267 179.441 0.960481 189.063C0.962043 191.47 0.963591 193.892 0.965153 196.333C0.980776 197.552 0.915114 198.793 1.0729 199.951C1.23381 201.123 1.61344 202.269 2.19148 203.311C3.33817 205.403 5.30818 207.046 7.60156 207.796C8.7545 208.187 9.94342 208.306 11.1963 208.293C12.4555 208.293 13.7193 208.292 14.9863 208.292C35.2674 208.284 56.5562 208.276 78.6276 208.268C89.6634 208.267 100.894 208.264 112.293 208.262C117.992 208.262 123.733 208.261 129.512 208.261C130.976 208.265 132.371 208.298 133.713 207.907C135.05 207.538 136.323 206.89 137.381 205.976C139.516 204.17 140.821 201.408 140.805 198.584C140.816 151.707 140.827 107.049 140.836 66.424C140.843 56.2682 140.849 46.3659 140.854 36.7437C140.857 31.9334 140.86 27.192 140.863 22.5241C140.865 20.1909 140.866 17.8749 140.868 15.5793C140.869 14.4307 140.869 13.2884 140.871 12.1492C140.896 10.9975 140.832 9.93025 140.538 8.8646C139.49 4.56756 135.283 1.5052 131.044 1.61943C126.693 1.61474 122.424 1.61159 118.239 1.60689C109.868 1.59751 101.833 1.58968 94.1642 1.58029C63.502 1.52553 38.6841 1.48172 21.5118 1.45043C17.2266 1.45043 13.4069 1.39878 10.1184 1.43947C6.81423 1.585 4.33965 3.33604 2.93675 5.03701C1.51354 6.78963 1.01045 8.49843 0.802673 9.62042C0.587083 10.7596 0.647966 11.3636 0.601099 11.3605Z" fill="#263238"/>
<path d="M39.937 174.603H39.4934C37.3781 174.603 35.6628 172.884 35.6628 170.766V41.1221C35.6628 39.0034 37.3781 37.2852 39.4934 37.2852H39.937C42.0523 37.2852 43.7677 39.0034 43.7677 41.1221V170.766C43.7677 172.884 42.0523 174.603 39.937 174.603Z" fill="#E0E0E0"/>
<path d="M39.937 174.603C39.8839 174.506 41.0775 174.762 42.4898 173.495C44.1645 172.226 43.4864 169.152 43.5864 165.622C43.5505 158.378 43.5005 147.983 43.438 135.159C43.4099 122.282 43.3755 106.974 43.338 89.9794C43.3286 81.4761 43.3209 72.5519 43.3115 63.3006C43.3084 58.6734 43.3068 53.9663 43.3037 49.1889C43.3037 46.7994 43.3021 44.3942 43.3021 41.9719C43.2958 41.3428 43.3349 40.7795 43.1912 40.2803C43.0615 39.7639 42.8053 39.2772 42.4445 38.8813C41.7149 38.0598 40.6791 37.6748 39.5011 37.7531C38.4201 37.75 37.3655 38.2945 36.7516 39.1771C36.4344 39.6105 36.2454 40.1254 36.1689 40.6511C36.1033 41.1472 36.1423 41.8154 36.1314 42.4053C36.1314 44.8277 36.1298 47.236 36.1298 49.6255C36.1266 54.4045 36.1251 59.1131 36.122 63.7403C36.1126 72.9931 36.1033 81.919 36.0954 90.4238C36.058 107.421 36.0235 122.73 35.9954 135.607C35.9329 148.431 35.883 158.826 35.8471 166.068C35.833 167.858 35.8189 169.453 35.808 170.844C35.8205 172.199 36.5532 173.227 37.2765 173.772C38.0154 174.337 38.7419 174.491 39.2106 174.54C39.684 174.585 39.9386 174.581 39.937 174.603C39.937 174.603 39.6917 174.65 39.2012 174.635C38.7184 174.617 37.9561 174.49 37.1609 173.923C36.3829 173.377 35.5705 172.307 35.5268 170.85C35.5127 169.457 35.4971 167.86 35.4799 166.068C35.444 158.826 35.394 148.431 35.3315 135.607C35.3034 122.73 35.2691 107.421 35.2316 90.4238C35.2237 81.919 35.2144 72.9931 35.2034 63.7403C35.2019 59.1131 35.1987 54.4045 35.1956 49.6255C35.1956 47.236 35.194 44.8293 35.194 42.4053C35.208 41.7841 35.1566 41.2333 35.2394 40.5228C35.3362 39.8499 35.583 39.1896 35.9861 38.6372C36.7672 37.5105 38.1217 36.811 39.498 36.8173C40.7587 36.714 42.2632 37.2116 43.1381 38.2585C43.5974 38.7655 43.9255 39.3852 44.0926 40.0471C44.277 40.7278 44.2254 41.396 44.2332 41.9719C44.2332 44.3942 44.2317 46.801 44.2317 49.1889C44.2285 53.9663 44.2269 58.6734 44.2254 63.3006C44.216 72.5519 44.2066 81.4761 44.1972 89.9794C44.1597 106.974 44.1254 122.282 44.0973 135.159C44.0348 147.983 43.9832 158.378 43.9488 165.622C43.9332 167.414 43.9177 169.008 43.9052 170.403C43.9833 171.83 43.3412 173.008 42.6163 173.634C41.0884 174.911 39.8792 174.563 39.937 174.603Z" fill="#263238"/>
<path d="M71.1274 174.603H70.6837C68.5684 174.603 66.853 172.884 66.853 170.766V41.1221C66.853 39.0034 68.5684 37.2852 70.6837 37.2852H71.1274C73.2427 37.2852 74.958 39.0034 74.958 41.1221V170.766C74.958 172.884 73.2427 174.603 71.1274 174.603Z" fill="#E0E0E0"/>
<path d="M71.1274 174.603C71.0742 174.506 72.2678 174.762 73.68 173.495C75.3548 172.226 74.6768 169.152 74.7768 165.622C74.7408 158.378 74.6908 147.983 74.6283 135.159C74.6002 122.282 74.5659 106.974 74.5284 89.9794C74.5206 81.4761 74.5112 72.5519 74.5002 63.3006C74.4987 58.6734 74.4955 53.9663 74.4939 49.1889C74.4939 46.7994 74.4924 44.3942 74.4924 41.9719C74.4862 41.3428 74.5253 40.7795 74.3815 40.2803C74.2519 39.7639 73.9956 39.2772 73.6347 38.8813C72.9052 38.0598 71.8694 37.6748 70.6915 37.7531C69.6104 37.75 68.5559 38.2945 67.9419 39.1771C67.6248 39.6105 67.4357 40.1254 67.3576 40.6511C67.292 41.1472 67.3311 41.8154 67.3201 42.4053C67.3201 44.8277 67.3186 47.236 67.3186 49.6255C67.3155 54.4045 67.3139 59.1131 67.3108 63.7403C67.3014 72.9931 67.292 81.919 67.2842 90.4238C67.2467 107.421 67.2124 122.73 67.1843 135.607C67.1218 148.431 67.0702 158.826 67.0358 166.068C67.0217 167.858 67.0076 169.453 66.9967 170.844C67.0092 172.199 67.7419 173.227 68.4652 173.772C69.2042 174.337 69.9307 174.491 70.3993 174.54C70.8758 174.585 71.1289 174.581 71.1274 174.603C71.1274 174.603 70.8821 174.65 70.3915 174.635C69.9088 174.617 69.1464 174.49 68.3528 173.923C67.5748 173.377 66.7624 172.307 66.7187 170.85C66.7046 169.457 66.689 167.86 66.6718 166.068C66.6375 158.826 66.5859 148.431 66.5234 135.607C66.4953 122.73 66.4609 107.421 66.4234 90.4238C66.4141 81.919 66.4047 72.9931 66.3953 63.7403C66.3922 59.1131 66.3906 54.4045 66.3875 49.6255C66.3875 47.236 66.3859 44.8293 66.3859 42.4053C66.3999 41.7841 66.3484 41.2333 66.4312 40.5228C66.528 39.8499 66.7749 39.1896 67.178 38.6372C67.9591 37.5105 69.3135 36.811 70.6899 36.8173C71.9506 36.714 73.4551 37.2116 74.3299 38.2585C74.7892 38.7655 75.1174 39.3852 75.2845 40.0471C75.4689 40.7278 75.4157 41.396 75.4251 41.9719C75.4251 44.3942 75.4235 46.801 75.4235 49.1889C75.4204 53.9663 75.4188 58.6734 75.4157 63.3006C75.4063 72.5519 75.3969 81.4761 75.3891 89.9794C75.3516 106.974 75.3173 122.282 75.2892 135.159C75.2267 147.983 75.1751 158.378 75.1407 165.622C75.1251 167.414 75.1111 169.008 75.0986 170.403C75.1767 171.83 74.5346 173.008 73.8097 173.634C72.2787 174.911 71.0695 174.563 71.1274 174.603Z" fill="#263238"/>
<path d="M102.318 174.603H101.874C99.7586 174.603 98.0433 172.884 98.0433 170.766V41.1221C98.0433 39.0034 99.7586 37.2852 101.874 37.2852H102.318C104.433 37.2852 106.148 39.0034 106.148 41.1221V170.766C106.148 172.884 104.433 174.603 102.318 174.603Z" fill="#E0E0E0"/>
<path d="M102.318 174.603C102.264 174.506 103.458 174.762 104.87 173.495C106.545 172.226 105.867 169.152 105.967 165.622C105.931 158.378 105.881 147.983 105.819 135.159C105.79 122.282 105.756 106.974 105.719 89.9794C105.711 81.4761 105.701 72.5519 105.692 63.3006C105.691 58.6734 105.687 53.9663 105.684 49.1889C105.684 46.7994 105.683 44.3942 105.683 41.9719C105.676 41.3428 105.715 40.7795 105.572 40.2803C105.441 39.7639 105.186 39.2772 104.825 38.8813C104.095 38.0598 103.06 37.6748 101.882 37.7531C100.801 37.75 99.7461 38.2945 99.1321 39.1771C98.815 39.6105 98.626 40.1254 98.5479 40.6511C98.4823 41.1472 98.5214 41.8154 98.5104 42.4053C98.5104 44.8277 98.5088 47.236 98.5088 49.6255C98.5057 54.4045 98.5041 59.1131 98.501 63.7403C98.4916 72.9931 98.4823 81.919 98.4745 90.4238C98.437 107.421 98.4026 122.73 98.3745 135.607C98.312 148.431 98.262 158.826 98.2261 166.068C98.212 167.858 98.1979 169.453 98.187 170.844C98.1995 172.199 98.9322 173.227 99.6555 173.772C100.394 174.337 101.121 174.491 101.59 174.54C102.066 174.585 102.319 174.581 102.318 174.603C102.318 174.603 102.072 174.65 101.582 174.635C101.099 174.617 100.337 174.49 99.5415 173.923C98.7635 173.377 97.9511 172.307 97.9073 170.85C97.8933 169.457 97.8777 167.86 97.8605 166.068C97.8246 158.826 97.7746 148.431 97.7121 135.607C97.6839 122.73 97.6496 107.421 97.6121 90.4238C97.6043 81.919 97.5949 72.9931 97.5855 63.7403C97.584 59.1131 97.5808 54.4045 97.5777 49.6255C97.5777 47.236 97.5762 44.8293 97.5762 42.4053C97.5902 41.7841 97.5402 41.2333 97.6215 40.5228C97.7183 39.8499 97.9652 39.1896 98.3683 38.6372C99.1494 37.5105 100.504 36.811 101.88 36.8173C103.141 36.714 104.645 37.2116 105.52 38.2585C105.98 38.7655 106.308 39.3852 106.475 40.0471C106.659 40.7278 106.608 41.396 106.615 41.9719C106.615 44.3942 106.614 46.801 106.614 49.1889C106.612 53.9663 106.609 58.6734 106.608 63.3006C106.598 72.5519 106.589 81.4761 106.581 89.9794C106.543 106.974 106.509 122.282 106.481 135.159C106.419 147.983 106.367 158.378 106.333 165.622C106.317 167.414 106.303 169.008 106.29 170.403C106.369 171.83 105.725 173.008 105.002 173.634C103.469 174.911 102.26 174.563 102.318 174.603Z" fill="#263238"/>
<path d="M39.1965 101.642H37.7108C33.3568 101.642 29.8261 98.1056 29.8261 93.7444C29.8261 89.3832 33.3552 85.8467 37.7108 85.8467H39.1965C43.5504 85.8467 47.0811 89.3816 47.0811 93.7444C47.0796 98.1072 43.5504 101.642 39.1965 101.642Z" fill="#6B07ED"/>
<path d="M72.4239 131.416H70.9382C66.5842 131.416 63.0552 127.881 63.0552 123.52C63.0552 119.159 66.5842 115.624 70.9382 115.624H72.4239C76.7779 115.624 80.3087 119.159 80.3087 123.522C80.3071 127.88 76.7779 131.416 72.4239 131.416Z" fill="#6B07ED"/>
<path d="M102.483 75.3012H100.998C96.6435 75.3012 93.1144 71.7662 93.1144 67.4051C93.1144 63.0439 96.6435 59.5089 100.998 59.5089H102.483C106.837 59.5089 110.368 63.0439 110.368 67.4066C110.366 71.7647 106.837 75.3012 102.483 75.3012Z" fill="#6B07ED"/>
</svg>
